<?xml version="1.0" standalone="no"?>
<!DOCTYPE svg PUBLIC "-//W3C//DTD SVG 20010904//EN"
 "http://www.w3.org/TR/2001/REC-SVG-20010904/DTD/svg10.dtd">
<svg version="1.0" xmlns="http://www.w3.org/2000/svg"
 width="500.000000pt" height="500.000000pt" viewBox="0 0 500.000000 500.000000"
 preserveAspectRatio="xMidYMid meet">

<g transform="translate(0.000000,500.000000) scale(0.100000,-0.100000)"
fill="#6d29d9" stroke="none">
<path d="M2487 4552 c-10 -10 -14 -22 -11 -25 4 -4 13 1 20 11 11 16 13 16 33
-2 12 -11 21 -15 21 -9 0 10 -32 43 -42 43 -3 0 -12 -8 -21 -18z"/>
<path d="M2489 4478 c-11 -21 -11 -22 5 -9 13 11 20 11 28 3 19 -19 29 -14 16
8 -17 26 -34 25 -49 -2z"/>
<path d="M2295 4470 c3 -6 -3 -23 -14 -39 -22 -31 -17 -51 6 -23 13 16 14 15
10 -5 -4 -19 -2 -20 14 -10 17 10 17 13 2 29 -14 16 -12 22 9 19 13 -2 -3 27
-18 33 -9 3 -12 1 -9 -4z"/>
<path d="M2266 4461 c-4 -7 -5 -15 -2 -18 9 -9 19 4 14 18 -4 11 -6 11 -12 0z"/>
<path d="M2610 4460 c0 -5 5 -10 10 -10 6 0 10 5 10 10 0 6 -4 10 -10 10 -5 0
-10 -4 -10 -10z"/>
<path d="M1741 4448 c0 -10 -8 -18 -16 -18 -20 0 -19 -6 5 -30 24 -24 30 -25
30 -5 0 8 5 15 10 15 6 0 10 5 10 10 0 6 -6 10 -14 10 -8 0 -17 8 -19 18 -4
16 -5 16 -6 0z"/>
<path d="M2760 4450 c-13 -9 -13 -11 0 -20 13 -9 9 -16 -23 -46 l-39 -36 33
-34 c18 -19 38 -34 44 -34 6 0 25 16 42 35 21 23 37 33 47 29 9 -4 16 -1 16 6
0 7 -8 10 -19 7 -28 -7 -89 57 -73 76 19 23 -1 35 -28 17z m60 -104 c0 -5 -10
-20 -22 -33 l-22 -23 -28 27 -28 27 27 28 27 28 23 -22 c13 -12 23 -26 23 -32z"/>
<path d="M2037 4414 c19 -30 28 -30 28 -1 0 16 -6 22 -22 23 -21 2 -21 1 -6
-22z"/>
<path d="M1945 4410 c-8 -13 4 -32 16 -25 12 8 12 35 0 35 -6 0 -13 -4 -16
-10z"/>
<path d="M2495 4378 c6 -28 -2 -40 -39 -56 -20 -9 -32 -10 -40 -2 -17 17 -29
11 -22 -12 3 -13 0 -38 -7 -56 -10 -30 -15 -33 -39 -28 -16 3 -28 1 -28 -4 0
-6 13 -10 28 -10 25 0 30 -6 41 -40 7 -22 9 -45 6 -50 -3 -6 -3 -15 1 -21 5
-8 9 -8 14 1 12 20 80 -6 80 -31 0 -11 7 -19 16 -19 11 0 15 6 11 20 -4 15 3
22 29 30 25 9 38 9 48 1 17 -15 28 -3 16 19 -7 13 -5 30 5 54 12 28 21 36 40
36 14 0 25 5 25 11 0 7 -10 9 -25 7 -20 -4 -28 1 -40 25 -8 17 -12 40 -9 54 6
23 5 24 -13 14 -15 -7 -29 -7 -53 2 -29 11 -31 15 -27 45 4 24 2 32 -9 32 -10
0 -13 -7 -9 -22z m65 -83 c55 -29 60 -117 8 -160 -69 -58 -168 -13 -168 77 0
24 6 51 13 60 31 39 96 49 147 23z"/>
<path d="M2473 4224 c-3 -8 2 -23 11 -32 15 -15 17 -15 32 0 21 21 11 48 -16
48 -11 0 -23 -7 -27 -16z"/>
<path d="M2934 4368 c-34 -16 -44 -51 -44 -149 0 -122 15 -149 82 -149 32 0
40 -5 54 -31 l16 -31 32 31 c21 21 42 31 62 31 59 0 69 17 72 130 4 113 -6
151 -44 169 -31 14 -201 13 -230 -1z m238 -25 c15 -14 18 -32 18 -121 0 -120
-10 -142 -65 -142 -18 0 -44 -9 -58 -20 l-26 -21 -11 21 c-8 14 -21 20 -47 20
-63 0 -73 18 -73 138 0 142 0 142 138 142 84 0 109 -3 124 -17z"/>
<path d="M2971 4215 l2 -75 76 0 76 0 0 75 0 75 -78 0 -78 0 2 -75z m137 45
c4 -12 2 -13 -9 -2 -7 6 -30 12 -51 12 l-38 0 0 -50 0 -51 45 4 c25 2 45 0 45
-5 0 -4 -22 -8 -50 -8 l-50 0 0 61 0 60 52 -3 c35 -2 53 -8 56 -18z"/>
<path d="M2660 4350 c0 -5 5 -10 10 -10 6 0 10 5 10 10 0 6 -4 10 -10 10 -5 0
-10 -4 -10 -10z"/>
<path d="M1582 4290 c0 -19 2 -27 5 -17 2 9 2 25 0 35 -3 9 -5 1 -5 -18z"/>
<path d="M1390 4295 c0 -8 -4 -15 -10 -15 -5 0 -3 -8 6 -19 15 -17 18 -17 33
-2 15 15 15 17 -1 34 -22 21 -28 21 -28 2z"/>
<path d="M1670 3931 l0 -379 183 -3 c100 -2 213 -2 250 -1 103 6 98 -14 105
407 l5 355 -271 0 -272 0 0 -379z m500 365 c0 -2 -42 -35 -92 -74 -51 -39
-107 -82 -125 -96 l-31 -26 -116 96 c-64 53 -116 98 -116 100 0 2 108 4 240 4
132 0 240 -2 240 -4z m-110 -180 c0 -36 -4 -67 -9 -70 -4 -3 -26 10 -47 29
l-39 34 40 35 c22 20 43 35 48 36 4 0 7 -29 7 -64z m-59 -61 c24 -15 74 -53
112 -83 l67 -54 0 -169 c0 -157 -1 -169 -20 -179 -12 -7 -101 -9 -247 -8
l-228 3 0 177 -1 177 59 53 c143 128 175 138 258 83z"/>
<path d="M1755 3850 c4 -6 11 -8 16 -5 14 9 11 15 -7 15 -8 0 -12 -5 -9 -10z"/>
<path d="M1888 3853 c46 -2 118 -2 160 0 42 1 5 3 -83 3 -88 0 -123 -2 -77 -3z"/>
<path d="M1750 3795 c0 -9 5 -15 11 -13 6 2 11 8 11 13 0 5 -5 11 -11 13 -6 2
-11 -4 -11 -13z"/>
<path d="M1820 3800 c0 -6 47 -10 120 -10 73 0 120 4 120 10 0 6 -47 10 -120
10 -73 0 -120 -4 -120 -10z"/>
<path d="M2090 3800 c0 -5 7 -10 15 -10 8 0 15 5 15 10 0 6 -7 10 -15 10 -8 0
-15 -4 -15 -10z"/>
<path d="M1750 3740 c0 -5 7 -10 15 -10 8 0 15 5 15 10 0 6 -7 10 -15 10 -8 0
-15 -4 -15 -10z"/>
<path d="M1815 3740 c-4 -6 38 -10 119 -10 77 0 126 4 126 10 0 6 -46 10 -119
10 -69 0 -122 -4 -126 -10z"/>
<path d="M2090 3740 c0 -5 5 -10 10 -10 6 0 10 5 10 10 0 6 -4 10 -10 10 -5 0
-10 -4 -10 -10z"/>
<path d="M1750 3680 c0 -5 7 -10 16 -10 8 0 12 5 9 10 -3 6 -10 10 -16 10 -5
0 -9 -4 -9 -10z"/>
<path d="M1815 3680 c-4 -6 33 -10 104 -10 67 0 111 4 111 10 0 6 -41 10 -104
10 -59 0 -108 -4 -111 -10z"/>
<path d="M2090 3680 c0 -5 5 -10 10 -10 6 0 10 5 10 10 0 6 -4 10 -10 10 -5 0
-10 -4 -10 -10z"/>
<path d="M1750 3630 c0 -6 34 -10 83 -10 56 0 77 3 67 10 -20 13 -150 13 -150
0z"/>
<path d="M3313 4295 c-39 -16 -49 -52 -24 -85 24 -33 73 -38 100 -11 53 53 -5
126 -76 96z m57 -30 c19 -23 3 -57 -27 -53 -34 4 -51 31 -34 52 17 20 45 21
61 1z"/>
<path d="M3336 4251 c-4 -7 -5 -15 -2 -18 9 -9 19 4 14 18 -4 11 -6 11 -12 0z"/>
<path d="M1170 4251 c0 -12 6 -21 16 -21 9 0 14 7 12 17 -5 25 -28 28 -28 4z"/>
<path d="M2770 4237 c0 -19 16 -31 24 -18 3 5 -1 14 -9 21 -12 10 -15 10 -15
-3z"/>
<path d="M1590 4220 c0 -5 5 -10 10 -10 6 0 10 5 10 10 0 6 -4 10 -10 10 -5 0
-10 -4 -10 -10z"/>
<path d="M2280 4220 c0 -5 5 -10 10 -10 6 0 10 5 10 10 0 6 -4 10 -10 10 -5 0
-10 -4 -10 -10z"/>
<path d="M2700 4220 c0 -5 5 -10 10 -10 6 0 10 5 10 10 0 6 -4 10 -10 10 -5 0
-10 -4 -10 -10z"/>
<path d="M1480 4210 c0 -5 5 -10 10 -10 6 0 10 5 10 10 0 6 -4 10 -10 10 -5 0
-10 -4 -10 -10z"/>
<path d="M2695 4120 c-31 -49 -31 -56 0 -103 23 -33 30 -37 69 -37 41 0 43 2
65 49 l23 48 -26 42 c-24 37 -30 41 -66 41 -35 0 -42 -4 -65 -40z"/>
<path d="M1065 4125 c-25 -24 -25 -26 -25 -213 l0 -190 -54 -4 c-66 -5 -128
-42 -158 -94 -17 -29 -25 -34 -45 -29 -58 14 -148 -35 -173 -95 -7 -17 -27
-37 -46 -46 -40 -19 -58 -61 -42 -104 5 -17 18 -35 28 -40 11 -6 177 -10 419
-10 l401 0 0 -625 c0 -543 2 -630 15 -656 15 -28 14 -35 -19 -137 -19 -59 -58
-168 -86 -242 -28 -74 -63 -166 -76 -204 l-24 -69 30 -63 c20 -43 39 -68 59
-79 27 -13 168 -15 1203 -15 1348 0 1225 -9 1267 95 l24 60 -36 105 c-20 58
-67 197 -106 308 -67 194 -70 205 -56 232 13 25 15 121 15 642 l0 613 350 -3
350 -3 0 36 0 35 -265 0 c-219 0 -265 2 -265 14 0 11 56 14 315 18 290 3 339
7 322 24 -3 4 -148 9 -322 12 -256 4 -315 7 -315 18 0 12 49 14 265 14 l265 0
0 30 0 30 -90 0 -90 0 0 330 0 330 -344 0 -344 0 -7 -112 c-4 -62 -5 -210 -4
-328 l4 -215 -952 -3 -953 -2 0 305 0 306 -25 24 c-24 25 -26 25 -205 25 -179
0 -181 0 -205 -25z m3015 -310 l0 -315 -202 -1 c-112 0 -259 -1 -328 -2 l-125
-2 -3 318 -2 317 330 0 330 0 0 -315z m-2751 291 c-9 -9 -99 -13 -99 -5 0 5
23 9 52 9 28 0 49 -2 47 -4z m89 -109 l3 -58 -148 3 -148 3 -3 44 c-5 74 -9
72 150 69 l143 -3 3 -58z m-153 -242 l0 -110 -80 0 -80 0 -3 99 c-1 55 0 106
2 113 4 10 25 13 83 11 l78 -3 0 -110z m193 98 c11 -22 13 -185 3 -202 -5 -8
-32 -11 -82 -9 l-74 3 -3 99 c-1 55 0 106 2 113 4 9 27 13 75 13 57 0 72 -3
79 -17z m-432 -153 c12 0 14 -24 12 -142 l-3 -143 -27 -3 c-23 -3 -30 3 -52
46 -23 45 -87 114 -116 124 -21 7 14 63 55 88 42 26 85 40 103 34 8 -2 20 -4
28 -4z m-201 -139 c52 -24 101 -76 118 -126 13 -37 17 -40 53 -43 35 -3 41 -7
50 -37 l11 -35 -248 0 c-272 0 -279 2 -279 60 0 35 23 60 55 60 16 0 25 7 29
26 11 42 36 74 75 94 46 24 85 24 136 1z m321 -25 c-4 -17 -13 -26 -26 -26
-11 0 -20 5 -20 10 0 6 7 10 15 10 10 0 15 10 15 27 0 20 3 24 11 16 7 -7 9
-23 5 -37z m114 23 c15 -27 -3 -49 -41 -49 -26 0 -29 3 -29 35 0 32 2 35 30
35 19 0 33 -7 40 -21z m115 1 c3 6 11 8 16 4 6 -4 3 -14 -7 -25 -13 -14 -20
-16 -31 -8 -7 6 -13 18 -13 26 0 12 3 13 14 4 10 -8 16 -9 21 -1z m-74 -140
c37 -20 18 -80 -26 -80 -43 0 -63 58 -27 79 22 13 29 13 53 1z m2185 -14 c18
-14 19 -35 22 -675 2 -468 0 -666 -8 -680 l-11 -21 -1009 0 c-988 0 -1010 0
-1020 19 -6 13 -10 243 -10 675 0 643 0 656 20 676 20 20 33 20 1008 20 837 0
991 -2 1008 -14z m161 -33 c-3 -10 -5 -4 -5 12 0 17 2 24 5 18 2 -7 2 -21 0
-30z m63 1 c0 -21 -4 -33 -10 -29 -17 10 -11 65 7 65 2 0 3 -16 3 -36z m-210
-1390 c12 -12 84 -200 145 -374 18 -52 45 -130 60 -174 23 -64 25 -80 14 -87
-8 -5 -564 -9 -1250 -9 -977 0 -1239 3 -1247 13 -7 8 5 53 45 157 30 80 67
181 83 225 63 181 92 246 113 255 34 14 2023 8 2037 -6z m-832 -681 c3 -10
-41 -13 -197 -13 -173 0 -201 2 -201 15 0 13 26 15 197 13 146 -2 197 -6 201
-15z m-1208 -32 c0 -6 -4 -13 -10 -16 -5 -3 -10 1 -10 9 0 9 5 16 10 16 6 0
10 -4 10 -9z"/>
<path d="M3490 4075 c0 -12 17 -15 90 -15 73 0 90 3 90 15 0 12 -17 15 -90 15
-73 0 -90 -3 -90 -15z"/>
<path d="M3495 4020 c-4 -7 68 -10 209 -10 137 0 216 4 216 10 0 6 -76 10
-209 10 -129 0 -212 -4 -216 -10z"/>
<path d="M3940 4020 c0 -5 18 -10 41 -10 24 0 38 4 34 10 -3 6 -22 10 -41 10
-19 0 -34 -4 -34 -10z"/>
<path d="M3611 3931 c-8 -14 -7 -22 4 -31 22 -19 48 5 34 31 -5 10 -14 19 -19
19 -5 0 -14 -9 -19 -19z"/>
<path d="M3870 3935 c-25 -30 10 -61 38 -33 7 7 8 17 1 30 -12 22 -23 23 -39
3z"/>
<path d="M3495 3931 c-7 -12 12 -24 25 -16 11 7 4 25 -10 25 -5 0 -11 -4 -15
-9z"/>
<path d="M3990 3920 c0 -5 7 -10 15 -10 8 0 15 5 15 10 0 6 -7 10 -15 10 -8 0
-15 -4 -15 -10z"/>
<path d="M3730 3900 c0 -16 7 -20 30 -20 23 0 30 4 30 20 0 16 -7 20 -30 20
-23 0 -30 -4 -30 -20z"/>
<path d="M3545 3851 c-6 -11 9 -23 19 -14 9 9 7 23 -3 23 -6 0 -12 -4 -16 -9z"/>
<path d="M3697 3841 c-16 -10 -37 -17 -47 -14 -21 5 -41 -38 -21 -45 6 -2 11
-19 11 -37 0 -18 -5 -35 -11 -37 -18 -6 0 -49 19 -47 9 2 31 -5 49 -14 40 -21
92 -22 120 -2 12 8 29 12 38 9 10 -4 22 1 30 12 19 25 19 44 0 44 -21 0 -20
56 1 68 21 12 9 54 -14 51 -9 -2 -31 5 -49 14 -42 22 -91 21 -126 -2z m113
-51 c24 -24 26 -57 4 -88 -20 -29 -76 -30 -104 -2 -41 41 -10 110 50 110 17 0
39 -9 50 -20z"/>
<path d="M3742 3768 c-16 -16 -15 -33 3 -48 12 -10 18 -10 30 0 20 16 19 46
-1 54 -20 8 -18 8 -32 -6z"/>
<path d="M3952 3848 c6 -18 28 -21 28 -4 0 9 -7 16 -16 16 -9 0 -14 -5 -12
-12z"/>
<path d="M3516 3775 c-13 -13 -14 -20 -5 -31 6 -8 17 -14 24 -14 20 0 27 32
12 47 -12 12 -17 12 -31 -2z"/>
<path d="M3969 3774 c-10 -12 -9 -18 4 -31 13 -13 19 -14 31 -3 21 17 20 27
-3 39 -14 8 -22 7 -32 -5z"/>
<path d="M3530 3666 c0 -17 27 -29 35 -16 4 6 3 15 0 20 -9 15 -35 12 -35 -4z"/>
<path d="M3965 3670 c-3 -5 -4 -14 0 -20 8 -13 35 -1 35 16 0 16 -26 19 -35 4z"/>
<path d="M3546 3622 c-3 -6 -1 -14 5 -17 15 -10 25 3 12 16 -7 7 -13 7 -17 1z"/>
<path d="M3957 3624 c-8 -8 1 -24 14 -24 5 0 9 7 9 15 0 15 -12 20 -23 9z"/>
<path d="M3730 3590 c0 -16 7 -20 30 -20 23 0 30 4 30 20 0 16 -7 20 -30 20
-23 0 -30 -4 -30 -20z"/>
<path d="M3870 3595 c-25 -30 10 -61 38 -33 17 17 15 26 -7 37 -14 8 -22 7
-31 -4z"/>
<path d="M3607 3593 c-23 -22 14 -53 39 -32 11 9 11 15 3 25 -12 15 -31 18
-42 7z"/>
<path d="M3490 3530 c0 -5 9 -10 21 -10 11 0 17 5 14 10 -3 6 -13 10 -21 10
-8 0 -14 -4 -14 -10z"/>
<path d="M4000 3530 c0 -5 9 -10 20 -10 11 0 20 5 20 10 0 6 -9 10 -20 10 -11
0 -20 -4 -20 -10z"/>
<path d="M1165 4020 c3 -5 12 -10 20 -10 8 0 17 5 20 10 4 6 -5 10 -20 10 -15
0 -24 -4 -20 -10z"/>
<path d="M1235 4020 c8 -13 115 -13 135 0 10 7 -9 10 -63 10 -50 0 -76 -4 -72
-10z"/>
<path d="M1160 3980 c0 -6 43 -10 110 -10 67 0 110 4 110 10 0 6 -43 10 -110
10 -67 0 -110 -4 -110 -10z"/>
<path d="M1120 3754 l0 -106 63 5 c34 3 63 6 65 7 1 0 1 44 0 98 l-3 97 -62 3
-63 3 0 -107z m78 69 c-10 -2 -28 -2 -40 0 -13 2 -5 4 17 4 22 1 32 -1 23 -4z
m13 -74 c-12 -10 -28 -16 -33 -13 -5 4 3 15 18 25 35 23 47 14 15 -12z"/>
<path d="M1320 3845 c0 -12 13 -15 60 -15 47 0 60 3 60 15 0 12 -13 15 -60 15
-47 0 -60 -3 -60 -15z"/>
<path d="M1320 3730 l0 -80 59 0 c69 0 71 3 71 96 l0 64 -65 0 -65 0 0 -80z
m80 36 c0 -13 -7 -30 -16 -37 -14 -11 -18 -10 -30 6 -24 33 -18 55 16 55 25 0
30 -4 30 -24z"/>
<path d="M1360 3754 c0 -8 5 -12 10 -9 6 3 10 10 10 16 0 5 -4 9 -10 9 -5 0
-10 -7 -10 -16z"/>
<path d="M1217 3553 c-12 -11 -8 -23 8 -23 8 0 15 7 15 15 0 16 -12 20 -23 8z"/>
<path d="M1257 3404 c-12 -12 -8 -42 6 -47 21 -8 39 8 35 29 -3 19 -29 30 -41
18z"/>
<path d="M1520 2720 l0 -630 960 0 960 0 0 630 0 630 -960 0 -960 0 0 -630z
m170 535 c18 -21 5 -45 -25 -45 -14 0 -28 7 -31 15 -7 17 12 45 31 45 7 0 18
-7 25 -15z m718 -7 l-3 -23 -259 -3 c-155 -1 -264 2 -269 7 -5 5 -7 17 -4 25
6 14 40 16 272 16 l266 0 -3 -22z m247 -3 c0 -18 -8 -20 -91 -23 -77 -2 -93 0
-98 14 -11 29 5 35 97 32 84 -3 92 -5 92 -23z m73 2 c2 -10 -3 -17 -12 -17
-18 0 -29 16 -21 31 9 14 29 6 33 -14z m80 0 c2 -10 -3 -17 -12 -17 -18 0 -29
16 -21 31 9 14 29 6 33 -14z m200 1 c-3 -21 -9 -23 -82 -26 -81 -3 -103 5 -93
32 5 13 24 16 92 16 84 0 86 -1 83 -22z m80 -1 c2 -10 -3 -17 -12 -17 -18 0
-29 16 -21 31 9 14 29 6 33 -14z m80 0 c2 -10 -3 -17 -12 -17 -18 0 -29 16
-21 31 9 14 29 6 33 -14z m77 3 c0 -7 -6 -15 -12 -17 -8 -3 -13 4 -13 17 0 13
5 20 13 18 6 -3 12 -11 12 -18z m91 9 c3 -6 0 -18 -9 -26 -18 -18 -37 -9 -37
18 0 21 34 27 46 8z m-1548 -143 c-2 -15 -10 -21 -28 -21 -31 0 -40 33 -14 52
22 16 46 -1 42 -31z m634 32 c13 -34 -2 -38 -142 -38 -102 0 -139 3 -143 13
-11 33 4 37 143 37 101 0 139 -3 142 -12z m-512 -132 c0 -20 -27 -39 -45 -32
-25 9 -30 37 -10 52 20 15 55 2 55 -20z m268 25 c8 -5 12 -17 10 -27 -3 -17
-14 -19 -118 -19 -104 0 -115 2 -118 19 -6 29 16 36 118 36 52 0 101 -4 108
-9z m560 -3 c7 -7 8 -17 1 -30 -9 -17 -26 -18 -243 -18 -195 0 -236 2 -246 15
-10 12 -10 18 0 30 10 13 50 15 244 15 162 0 235 -3 244 -12z m601 -22 c17
-20 -13 -43 -34 -26 -12 10 -13 16 -4 26 6 8 15 14 19 14 4 0 13 -6 19 -14z
m-13 -83 c-10 -10 -19 5 -10 18 6 11 8 11 12 0 2 -7 1 -15 -2 -18z m-1506 -22
c7 -15 6 -24 -6 -36 -9 -9 -21 -14 -27 -12 -18 6 -31 33 -24 51 9 22 44 20 57
-3z m658 -7 c4 -31 -16 -34 -244 -34 -210 0 -245 7 -231 44 6 15 30 16 239 14
229 -3 233 -3 236 -24z m110 14 c15 -15 -3 -38 -29 -38 -22 0 -33 16 -25 35 7
18 37 20 54 3z m90 -11 c4 -20 -25 -34 -40 -19 -15 15 -1 44 19 40 10 -2 19
-11 21 -21z m87 -2 c0 -22 -31 -33 -47 -17 -17 17 -1 44 24 40 15 -2 23 -10
23 -23z m-861 -108 c9 -15 7 -21 -8 -32 -23 -18 -56 -3 -56 25 0 33 45 38 64
7z m554 -4 l3 -23 -215 0 c-216 0 -235 3 -222 36 5 12 38 14 218 12 212 -3
213 -3 216 -25z m250 4 c4 -20 -25 -34 -40 -19 -15 15 -1 44 19 40 10 -2 19
-11 21 -21z m377 -2 c0 -19 -8 -20 -124 -23 -126 -3 -149 3 -138 33 6 13 25
15 134 13 120 -3 128 -4 128 -23z m-535 6 c0 -5 -6 -14 -14 -20 -10 -8 -16 -8
-25 2 -6 8 -8 17 -4 20 9 10 43 8 43 -2z m73 2 c9 -9 -13 -34 -24 -27 -14 8
-11 34 4 34 8 0 17 -3 20 -7z m167 -7 c0 -8 -5 -18 -10 -21 -13 -8 -42 14 -34
26 9 15 44 10 44 -5z m-210 -101 c7 -8 10 -22 6 -30 -8 -22 -334 -22 -342 0
-4 8 -4 22 0 30 8 22 318 22 336 0z m-745 -25 c0 -20 -6 -26 -28 -28 -29 -4
-44 16 -33 44 4 10 15 14 33 12 22 -2 28 -8 28 -28z m361 9 c10 -17 -13 -36
-27 -22 -12 12 -4 33 11 33 5 0 12 -5 16 -11z m1136 -81 c-17 -17 -47 9 -30
29 10 12 13 12 27 -1 11 -12 12 -19 3 -28z m-813 -12 c6 -7 9 -21 5 -30 -5
-14 -35 -16 -259 -16 -224 0 -254 2 -259 16 -16 40 5 44 259 44 193 0 245 -3
254 -14z m-721 -8 c16 -16 15 -23 -4 -42 -12 -12 -20 -13 -35 -6 -19 10 -26
40 -12 53 10 11 38 8 51 -5z m106 -121 c15 -25 -18 -51 -45 -36 -19 10 -25 39
-12 53 12 12 45 2 57 -17z m394 11 c7 -7 8 -17 1 -30 -9 -16 -24 -18 -175 -18
-137 0 -166 3 -170 15 -4 8 -4 22 0 30 4 12 33 15 169 15 110 0 167 -4 175
-12z m387 -18 c0 -24 -2 -25 -83 -28 -86 -3 -103 5 -88 43 5 13 21 15 88 13
81 -3 83 -4 83 -28z m95 14 c11 -12 10 -18 -3 -32 -16 -15 -18 -15 -34 0 -13
14 -14 20 -3 32 7 9 16 16 20 16 4 0 13 -7 20 -16z m-392 -17 c2 -11 -3 -17
-17 -17 -23 0 -35 15 -26 31 10 15 39 6 43 -14z m80 6 c-5 -26 -38 -29 -38 -4
0 15 6 21 21 21 14 0 19 -5 17 -17z m-688 -98 c19 -23 8 -50 -20 -50 -16 0
-26 6 -28 18 -4 18 14 47 28 47 4 0 13 -7 20 -15z m410 0 c7 -8 10 -22 6 -30
-4 -12 -27 -15 -119 -15 -120 0 -144 8 -126 42 8 16 23 18 118 18 84 0 111 -3
121 -15z m190 -20 c0 -19 -20 -29 -32 -17 -8 8 -7 16 2 26 14 17 30 12 30 -9z
m88 2 c4 -20 -25 -34 -40 -19 -15 15 -1 44 19 40 10 -2 19 -11 21 -21z m79 7
c8 -21 -13 -42 -28 -27 -13 13 -5 43 11 43 6 0 13 -7 17 -16z m83 -9 c0 -8 -5
-17 -11 -21 -16 -9 -30 18 -17 33 12 15 28 8 28 -12z m-337 8 c9 -9 -13 -34
-24 -27 -14 8 -11 34 4 34 8 0 17 -3 20 -7z m761 -52 c9 -14 -4 -41 -19 -41
-15 0 -28 27 -19 41 3 5 11 9 19 9 8 0 16 -4 19 -9z m84 -14 c4 -20 -25 -34
-40 -19 -15 15 -1 44 19 40 10 -2 19 -11 21 -21z m80 0 c4 -20 -25 -34 -40
-19 -15 15 -1 44 19 40 10 -2 19 -11 21 -21z m-318 -2 c0 -8 -7 -15 -15 -15
-16 0 -20 12 -8 23 11 12 23 8 23 -8z m73 8 c9 -9 -13 -34 -24 -27 -14 8 -11
34 4 34 8 0 17 -3 20 -7z m312 -2 c7 -12 -12 -24 -25 -16 -11 7 -4 25 10 25 5
0 11 -4 15 -9z m-1587 -64 c-4 -28 -46 -30 -62 -4 -9 15 -7 21 8 32 25 19 58
2 54 -28z m680 9 c6 -30 -16 -36 -149 -36 -133 0 -169 10 -156 44 6 15 24 16
154 14 135 -3 148 -5 151 -22z m90 1 c4 -20 -25 -34 -40 -19 -15 15 -1 44 19
40 10 -2 19 -11 21 -21z m79 -11 c-4 -9 -11 -16 -17 -16 -17 0 -24 31 -9 41
18 11 34 -5 26 -25z m301 10 c6 -28 -15 -36 -96 -36 -75 0 -92 10 -78 45 5 13
21 15 88 13 72 -3 83 -6 86 -22z m-218 0 c0 -21 -21 -31 -30 -15 -5 7 -6 17
-4 21 9 14 34 9 34 -6z"/>
<path d="M1527 1893 c-8 -21 -13 -41 -10 -45 2 -5 40 -8 84 -8 86 0 81 -3 103
68 7 22 6 22 -77 22 l-85 0 -15 -37z"/>
<path d="M1756 1922 c-2 -4 -7 -24 -11 -44 l-7 -37 66 2 c72 2 86 11 86 60 0
27 -1 27 -64 27 -36 0 -67 -3 -70 -8z"/>
<path d="M1936 1918 c-16 -52 -16 -68 1 -69 29 -2 126 1 129 4 1 1 5 19 9 40
l7 37 -71 0 c-49 0 -73 -4 -75 -12z"/>
<path d="M2114 1895 c-3 -20 -5 -38 -3 -40 7 -6 32 -7 92 -6 l57 1 0 40 0 40
-70 0 -69 0 -7 -35z"/>
<path d="M2307 1924 c-4 -4 -7 -22 -7 -40 0 -37 14 -42 98 -36 l53 4 -3 37 -3
36 -65 3 c-36 2 -69 0 -73 -4z"/>
<path d="M2487 1924 c-4 -4 -7 -22 -7 -41 l0 -33 76 0 75 0 -3 38 -3 37 -65 3
c-36 2 -69 0 -73 -4z"/>
<path d="M2670 1890 l0 -40 55 -1 c30 -1 63 -2 72 -3 20 -1 28 24 19 60 -6 23
-11 24 -76 24 l-70 0 0 -40z"/>
<path d="M2857 1923 c-3 -5 -2 -23 0 -40 l5 -33 74 0 c79 0 82 3 68 58 -6 20
-12 22 -75 22 -37 0 -70 -3 -72 -7z"/>
<path d="M3040 1903 c0 -16 4 -33 8 -39 8 -13 140 -25 147 -14 2 4 0 23 -6 43
l-10 37 -69 0 c-70 0 -70 0 -70 -27z"/>
<path d="M3230 1910 c0 -10 5 -31 12 -45 11 -25 14 -26 97 -23 93 3 94 3 71
64 -9 23 -14 24 -95 24 -78 0 -85 -2 -85 -20z"/>
<path d="M1508 1808 c-16 -12 -38 -58 -38 -79 0 -7 32 -9 86 -7 93 3 92 3 110
72 5 22 3 23 -68 25 -47 1 -79 -3 -90 -11z"/>
<path d="M1738 1813 c-9 -2 -19 -15 -22 -28 -3 -13 -9 -30 -12 -39 -5 -13 1
-16 33 -16 37 0 39 2 49 40 6 22 9 42 6 45 -6 6 -28 5 -54 -2z"/>
<path d="M1847 1813 c-3 -5 -9 -25 -15 -45 l-10 -38 68 0 c73 0 79 6 80 68 0
20 -4 22 -59 22 -33 0 -62 -3 -64 -7z"/>
<path d="M2016 1803 c-2 -10 -7 -32 -11 -49 l-6 -31 78 4 c42 2 78 5 80 6 1 2
5 22 9 45 l7 42 -76 0 c-64 0 -76 -3 -81 -17z"/>
<path d="M2206 1798 c-17 -64 -12 -68 69 -68 l75 0 0 45 0 45 -69 0 c-63 0
-69 -2 -75 -22z"/>
<path d="M2397 1813 c-12 -12 -7 -81 6 -85 6 -2 40 -2 75 0 67 4 72 10 56 70
-6 20 -12 22 -68 22 -35 0 -66 -3 -69 -7z"/>
<path d="M2580 1776 c0 -51 6 -54 98 -48 l53 4 -7 36 c-4 21 -9 40 -11 45 -2
4 -33 7 -69 7 l-64 0 0 -44z"/>
<path d="M2765 1811 c-10 -17 5 -79 21 -85 7 -3 43 -3 78 1 l64 6 -12 41 -12
41 -66 3 c-38 2 -69 -2 -73 -7z"/>
<path d="M2964 1778 c4 -23 8 -43 9 -44 4 -4 52 -7 94 -6 l42 2 -13 43 -12 42
-63 3 -64 3 7 -43z"/>
<path d="M3140 1801 c0 -45 18 -69 54 -73 41 -5 44 4 22 57 -13 29 -20 35 -45
35 -24 0 -31 -4 -31 -19z"/>
<path d="M3260 1811 c0 -5 7 -24 15 -43 11 -29 21 -36 50 -41 42 -7 135 2 135
13 0 4 -7 24 -15 44 l-15 36 -85 0 c-47 0 -85 -4 -85 -9z"/>
<path d="M3378 1692 l-77 -3 16 -44 15 -45 90 0 c78 0 89 2 84 16 -3 9 -9 27
-12 40 -9 34 -27 39 -116 36z"/>
<path d="M1436 1650 c-9 -22 -16 -43 -16 -45 0 -3 40 -5 89 -5 l89 0 16 40 c9
22 16 43 16 45 0 3 -40 5 -89 5 l-89 0 -16 -40z"/>
<path d="M1672 1651 c-16 -53 -17 -53 29 -49 40 3 43 5 54 46 l13 42 -42 0
c-41 0 -43 -2 -54 -39z"/>
<path d="M1801 1653 c-6 -21 -11 -41 -11 -45 0 -5 34 -8 75 -8 57 0 75 3 75
14 0 7 3 28 6 45 l7 31 -71 0 -71 0 -10 -37z"/>
<path d="M1990 1676 c0 -7 -3 -28 -6 -45 l-6 -31 486 0 486 0 -6 28 c-15 68
35 62 -485 62 -391 0 -469 -2 -469 -14z"/>
<path d="M2986 1653 c4 -21 9 -41 11 -45 2 -5 35 -8 74 -8 38 0 69 3 69 8 0 4
-5 24 -11 45 l-10 37 -70 0 -70 0 7 -37z"/>
<path d="M3170 1683 c0 -5 5 -25 11 -45 9 -36 12 -38 49 -38 45 0 44 -1 28 51
-10 37 -14 39 -50 39 -21 0 -38 -3 -38 -7z"/>
<path d="M1380 1530 c0 -5 20 -10 45 -10 25 0 45 5 45 10 0 6 -20 10 -45 10
-25 0 -45 -4 -45 -10z"/>
<path d="M2055 1528 c-5 -16 -24 -100 -25 -110 0 -5 194 -8 430 -8 365 0 430
2 430 14 0 8 -5 37 -12 65 l-11 51 -404 0 c-314 0 -405 -3 -408 -12z m245 -53
c0 -18 -5 -25 -20 -25 -15 0 -20 7 -20 25 0 18 5 25 20 25 15 0 20 -7 20 -25z"/>
<path d="M3215 1530 c-3 -5 3 -10 14 -10 12 0 21 5 21 10 0 6 -6 10 -14 10 -8
0 -18 -4 -21 -10z"/>
<path d="M3260 1530 c0 -6 28 -10 65 -10 37 0 65 4 65 10 0 6 -28 10 -65 10
-37 0 -65 -4 -65 -10z"/>
<path d="M1360 1465 c0 -11 12 -15 45 -15 33 0 45 4 45 15 0 11 -12 15 -45 15
-33 0 -45 -4 -45 -15z"/>
<path d="M1507 1474 c-8 -8 1 -24 14 -24 5 0 9 7 9 15 0 15 -12 20 -23 9z"/>
<path d="M1676 1473 c-11 -11 -6 -23 9 -23 8 0 15 4 15 9 0 13 -16 22 -24 14z"/>
<path d="M3230 1465 c0 -13 23 -15 150 -15 127 0 150 2 150 15 0 13 -23 15
-150 15 -127 0 -150 -2 -150 -15z"/>
<path d="M1340 1405 c0 -13 9 -16 43 -13 23 2 42 8 42 13 0 6 -19 11 -42 13
-34 3 -43 0 -43 -13z"/>
<path d="M1655 1411 c-7 -12 12 -24 25 -16 11 7 4 25 -10 25 -5 0 -11 -4 -15
-9z"/>
<path d="M3497 1413 c-17 -17 -2 -23 53 -23 47 0 60 3 60 15 0 11 -13 15 -53
15 -30 0 -57 -3 -60 -7z"/>
<path d="M853 4088 c-30 -15 -29 -32 4 -57 l26 -21 24 22 c30 28 29 46 -3 58
-14 6 -26 10 -27 9 -1 0 -12 -5 -24 -11z"/>
<path d="M3260 4057 c-13 -7 -35 -28 -48 -47 -33 -48 -27 -118 13 -160 16 -17
37 -32 47 -36 16 -5 18 -18 18 -119 0 -101 2 -115 19 -124 13 -7 24 -6 37 4
16 11 20 29 22 118 3 90 1 111 -18 155 -24 56 -35 59 -45 12 -10 -44 -22 -45
-61 -6 -35 35 -36 39 -32 92 7 78 38 109 112 109 30 0 52 3 49 8 -7 12 -86 8
-113 -6z m80 -332 c0 -43 -4 -75 -10 -75 -6 0 -10 32 -10 75 0 43 4 75 10 75
6 0 10 -32 10 -75z m0 -115 c0 -5 -4 -10 -10 -10 -5 0 -10 5 -10 10 0 6 5 10
10 10 6 0 10 -4 10 -10z"/>
<path d="M788 4029 c-25 -14 -24 -75 1 -88 14 -8 24 -4 45 18 l26 27 -27 26
c-22 21 -32 25 -45 17z"/>
<path d="M932 4013 c-20 -27 -20 -27 1 -55 27 -37 57 -23 57 27 0 50 -31 65
-58 28z"/>
<path d="M2376 3958 c-64 -87 -66 -98 -22 -163 23 -35 36 -67 36 -87 l0 -32
48 47 c41 41 53 47 89 47 37 0 46 -5 79 -45 42 -52 54 -56 54 -17 0 15 13 48
28 73 41 64 44 77 27 112 -17 36 -98 127 -112 127 -5 0 -24 -16 -43 -35 l-33
-34 -40 34 c-22 19 -46 35 -52 35 -7 0 -33 -28 -59 -62z m109 -48 c16 -16 33
-30 39 -30 5 0 25 14 43 32 24 23 36 29 44 21 8 -8 8 -17 0 -32 -12 -22 -72
-71 -87 -71 -5 0 -29 17 -53 38 -32 27 -43 43 -38 55 9 24 19 21 52 -13z m-86
-34 c15 -18 4 -46 -18 -46 -27 0 -42 20 -30 42 12 21 32 23 48 4z m296 -16 c0
-28 -27 -39 -50 -20 -21 18 -1 52 28 48 16 -2 22 -10 22 -28z m-230 -60 c0
-27 -22 -39 -31 -16 -8 22 3 49 19 43 6 -2 12 -14 12 -27z m155 0 c0 -13 -7
-20 -20 -20 -13 0 -20 7 -20 20 0 13 7 20 20 20 13 0 20 -7 20 -20z"/>
<path d="M3294 3979 c-3 -6 -2 -15 4 -21 13 -13 32 -2 32 18 0 16 -26 19 -36
3z"/>
<path d="M2286 3965 c-22 -22 -40 -90 -31 -112 6 -14 10 -7 15 28 3 25 13 58
23 72 19 30 16 35 -7 12z"/>
<path d="M2900 3949 c0 -31 0 -31 -24 -16 -28 19 -32 16 -65 -50 l-21 -43 30
0 c16 0 30 -4 30 -10 0 -5 -13 -10 -30 -10 -16 0 -30 -2 -30 -5 0 -2 12 -30
27 -60 17 -35 32 -54 40 -50 7 3 20 8 28 11 11 5 15 -1 15 -25 0 -31 1 -31 50
-31 49 0 50 1 50 30 0 29 13 40 25 20 13 -21 31 -8 58 40 34 63 34 70 -4 70
-17 0 -28 4 -24 10 3 6 17 10 31 10 31 0 30 3 -7 61 -30 47 -31 48 -55 33 -24
-16 -24 -16 -24 15 0 31 -1 31 -50 31 -49 0 -50 0 -50 -31z"/>
<path d="M4192 3944 c-2 -22 -8 -33 -22 -37 -26 -7 -26 -27 -1 -27 15 0 21 -8
24 -32 l4 -33 1 33 c2 25 8 35 22 39 26 7 26 23 1 23 -15 0 -21 8 -24 33 l-4
32 -1 -31z"/>
<path d="M857 3932 c-34 -36 -34 -45 2 -58 21 -9 34 -8 55 3 29 15 32 23 14
44 -32 38 -43 40 -71 11z"/>
<path d="M1588 3853 c-3 -27 -1 -52 4 -57 4 -6 8 16 8 47 0 69 -6 74 -12 10z"/>
<path d="M694 3869 c-3 -6 1 -18 10 -27 15 -15 17 -15 32 0 19 19 11 38 -16
38 -10 0 -22 -5 -26 -11z"/>
<path d="M714 3795 c-3 -8 -10 -12 -15 -9 -5 3 -9 0 -9 -5 0 -6 6 -11 14 -11
8 0 17 -8 19 -17 4 -16 5 -16 6 -1 0 9 8 18 16 20 13 2 12 6 -5 21 -18 15 -21
15 -26 2z"/>
<path d="M950 3790 c0 -5 7 -10 16 -10 8 0 12 5 9 10 -3 6 -10 10 -16 10 -5 0
-9 -4 -9 -10z"/>
<path d="M4135 3790 c3 -5 17 -10 31 -10 24 0 24 -1 24 -95 0 -78 -3 -95 -15
-95 -8 0 -15 -7 -15 -15 0 -8 7 -15 15 -15 8 0 15 -8 16 -17 0 -14 2 -13 9 5
5 12 17 22 27 23 14 0 13 2 -4 9 -22 9 -23 15 -23 105 0 95 0 95 25 95 14 0
25 5 25 10 0 6 -27 10 -61 10 -37 0 -58 -4 -54 -10z"/>
<path d="M3244 3700 c0 -52 1 -74 3 -47 2 26 2 68 0 95 -2 26 -3 4 -3 -48z"/>
<path d="M852 3759 c2 -6 8 -10 13 -10 5 0 11 4 13 10 2 6 -4 11 -13 11 -9 0
-15 -5 -13 -11z"/>
<path d="M1590 3744 c0 -8 5 -12 10 -9 6 4 8 11 5 16 -9 14 -15 11 -15 -7z"/>
<path d="M2263 3709 c14 -120 109 -189 197 -144 30 15 60 61 60 90 0 30 -19
14 -30 -25 -8 -28 -19 -44 -40 -55 -37 -19 -44 -19 -87 1 -50 24 -83 78 -83
136 0 29 -4 48 -11 48 -8 0 -10 -16 -6 -51z"/>
<path d="M4290 3750 c0 -5 5 -10 10 -10 6 0 10 5 10 10 0 6 -4 10 -10 10 -5 0
-10 -4 -10 -10z"/>
<path d="M2740 3720 c0 -5 5 -10 10 -10 6 0 10 5 10 10 0 6 -4 10 -10 10 -5 0
-10 -4 -10 -10z"/>
<path d="M1590 3700 c0 -5 5 -10 10 -10 6 0 10 5 10 10 0 6 -4 10 -10 10 -5 0
-10 -4 -10 -10z"/>
<path d="M3150 3700 c0 -5 5 -10 10 -10 6 0 10 5 10 10 0 6 -4 10 -10 10 -5 0
-10 -4 -10 -10z"/>
<path d="M596 3677 c-18 -13 -18 -14 -1 -21 22 -8 28 -3 23 19 -3 14 -5 14
-22 2z"/>
<path d="M4305 3660 c-3 -5 1 -10 9 -10 9 0 16 5 16 10 0 6 -4 10 -9 10 -6 0
-13 -4 -16 -10z"/>
<path d="M1590 3649 c0 -5 5 -7 10 -4 6 3 10 8 10 11 0 2 -4 4 -10 4 -5 0 -10
-5 -10 -11z"/>
<path d="M2722 3648 c-32 -32 2 -79 43 -60 25 12 30 27 19 56 -7 19 -45 21
-62 4z m45 -14 c8 -21 -13 -42 -28 -27 -13 13 -5 43 11 43 6 0 13 -7 17 -16z"/>
<path d="M2557 3613 c-11 -10 -8 -71 3 -78 6 -4 10 12 10 39 0 47 -2 51 -13
39z"/>
<path d="M3094 3595 c-7 -29 10 -55 36 -55 24 0 42 24 38 52 -2 18 -10 24 -35
26 -28 3 -33 -1 -39 -23z m56 -16 c0 -25 -33 -22 -38 4 -2 12 3 17 17 17 15 0
21 -6 21 -21z"/>
<path d="M4338 3588 c-22 -22 -22 -28 -4 -28 8 0 17 -8 19 -17 4 -17 5 -17 6
0 0 9 8 17 16 17 8 0 15 5 15 10 0 6 -6 10 -14 10 -8 0 -16 6 -18 13 -2 9 -8
8 -20 -5z"/>
<path d="M2735 3560 c-3 -5 -1 -10 4 -10 6 0 11 5 11 10 0 6 -2 10 -4 10 -3 0
-8 -4 -11 -10z"/>
<path d="M2770 3560 c0 -5 5 -10 10 -10 6 0 10 5 10 10 0 6 -4 10 -10 10 -5 0
-10 -4 -10 -10z"/>
<path d="M554 3235 c-10 -25 4 -45 30 -45 27 0 42 26 25 46 -15 19 -48 18 -55
-1z m42 -6 c10 -17 -13 -36 -27 -22 -12 12 -4 33 11 33 5 0 12 -5 16 -11z"/>
<path d="M856 3235 c-9 -9 -16 -21 -16 -26 0 -5 -29 -9 -64 -9 -67 0 -76 -6
-76 -51 0 -13 -10 -24 -30 -31 -17 -5 -35 -18 -40 -28 -26 -48 1 -120 44 -120
13 0 29 -7 36 -15 8 -10 31 -15 70 -15 39 0 62 5 70 15 7 8 23 15 35 15 12 0
28 -7 35 -15 17 -20 123 -21 140 -1 6 8 23 16 38 18 36 4 57 43 48 92 -6 30
-14 40 -41 52 -27 11 -34 20 -37 46 l-3 33 -65 3 c-57 2 -67 6 -75 25 -12 27
-47 33 -69 12z m54 -20 c0 -8 -9 -15 -20 -15 -11 0 -20 7 -20 15 0 8 9 15 20
15 11 0 20 -7 20 -15z m-75 -130 c0 -25 -4 -30 -24 -30 -32 0 -49 28 -31 50 7
9 23 15 34 13 16 -2 21 -10 21 -33z m154 16 c13 -24 -8 -55 -35 -49 -20 3 -30
29 -20 54 8 20 43 17 55 -5z m-289 -51 c0 -53 -2 -60 -20 -60 -30 0 -53 41
-41 73 9 23 35 46 54 47 4 0 7 -27 7 -60z m415 35 c14 -13 25 -32 25 -42 -1
-27 -24 -53 -49 -53 -19 0 -21 5 -21 60 0 66 8 73 45 35z"/>
<path d="M4020 3212 c0 -14 7 -17 38 -14 45 4 130 -31 182 -76 32 -28 34 -32
22 -52 -20 -32 1 -50 28 -25 26 24 25 33 -7 63 -56 51 -108 83 -171 102 -79
25 -92 25 -92 2z"/>
<path d="M3660 3204 c0 -8 -4 -12 -10 -9 -5 3 -10 1 -10 -4 0 -6 5 -11 10 -11
6 0 10 -7 10 -15 0 -8 5 -15 10 -15 6 0 10 7 10 15 0 8 7 15 15 15 12 0 11 4
-5 20 -24 24 -30 25 -30 4z"/>
<path d="M3898 3206 c-49 -18 -100 -49 -154 -93 l-44 -37 22 -23 c16 -17 24
-20 35 -12 10 9 10 15 2 25 -6 8 -9 20 -6 27 10 26 116 87 179 103 35 9 65 18
67 20 10 10 -68 2 -101 -10z"/>
<path d="M4320 3210 c0 -5 5 -10 10 -10 6 0 10 5 10 10 0 6 -4 10 -10 10 -5 0
-10 -4 -10 -10z"/>
<path d="M4421 3198 c-1 -10 -8 -18 -16 -18 -8 0 -15 -7 -15 -15 0 -8 7 -15
15 -15 23 0 18 -17 -7 -24 l-23 -6 21 -18 c12 -9 24 -24 27 -32 4 -10 6 -7 6
8 1 12 7 22 16 22 8 0 15 4 15 9 0 5 -7 11 -15 15 -8 3 -15 10 -15 16 0 5 7
10 15 10 8 0 15 5 15 10 0 6 -5 10 -10 10 -6 0 -15 10 -20 23 -7 17 -9 18 -9
5z"/>
<path d="M1248 3113 c-19 -5 -25 -23 -8 -23 20 0 23 -31 4 -45 -18 -13 -18
-14 8 -20 39 -10 53 2 31 27 -17 19 -17 20 0 33 18 13 18 14 0 22 -10 5 -26 8
-35 6z"/>
<path d="M3915 3104 c-22 -8 -55 -29 -73 -47 -96 -93 -113 -212 -44 -327 14
-25 25 -48 24 -52 -1 -5 3 -8 9 -8 6 0 24 -11 40 -25 29 -23 86 -45 122 -45
11 0 17 8 17 24 0 19 -6 24 -38 30 -50 8 -115 64 -137 118 -50 125 12 255 137
288 31 9 38 15 38 35 0 21 -5 25 -27 24 -16 0 -46 -7 -68 -15z"/>
<path d="M4030 3066 c0 -45 3 -56 19 -61 19 -6 60 -45 47 -45 -4 0 -19 9 -33
20 -32 25 -79 25 -120 0 -41 -25 -63 -68 -63 -123 0 -57 30 -102 98 -146 31
-20 52 -41 52 -52 0 -10 4 -20 9 -23 14 -9 90 21 123 49 30 25 47 28 33 5 -10
-17 -76 -56 -117 -69 -21 -7 -38 -17 -38 -22 0 -5 -7 -9 -15 -9 -12 0 -15 -14
-15 -70 0 -71 7 -82 33 -56 8 8 34 20 58 26 62 17 151 66 188 104 l31 32 -20
19 c-15 14 -23 16 -32 7 -8 -8 -8 -15 1 -25 9 -12 4 -21 -29 -47 -50 -40 -180
-92 -180 -72 0 5 19 15 43 22 56 16 110 44 128 66 16 20 14 19 -61 -18 -30
-15 -67 -30 -82 -34 -23 -5 -28 -3 -28 13 0 15 11 23 43 32 96 29 171 101 196
189 8 26 6 31 -12 36 -12 3 -39 6 -59 6 -76 0 -35 18 57 25 84 6 95 9 95 26 0
16 -7 19 -50 19 -46 0 -50 2 -56 28 -19 89 -78 157 -164 187 -74 26 -80 23
-80 -39z m100 -31 c34 -18 86 -82 75 -93 -4 -4 -10 0 -13 8 -6 17 -58 70 -87
87 -29 17 -9 16 25 -2z m10 -115 c0 -6 -43 -10 -110 -10 -67 0 -110 4 -110 10
0 6 43 10 110 10 67 0 110 -4 110 -10z m-45 -50 c-4 -6 -38 -10 -78 -9 -46 1
-72 -2 -75 -10 -6 -17 -32 -13 -32 5 0 8 5 12 10 9 6 -3 10 -1 10 4 0 7 32 11
86 11 56 0 83 -4 79 -10z m60 0 c3 -6 -1 -13 -10 -16 -19 -8 -30 0 -20 15 8
14 22 14 30 1z m-10 -70 c-4 -6 -53 -10 -116 -10 -66 0 -109 4 -109 10 0 6 45
10 116 10 74 0 113 -4 109 -10z m-50 -40 c-3 -5 -37 -10 -75 -10 -38 0 -72 5
-75 10 -4 6 23 10 75 10 52 0 79 -4 75 -10z m-57 -31 c-2 -6 -8 -10 -13 -10
-5 0 -11 4 -13 10 -2 6 4 11 13 11 9 0 15 -5 13 -11z"/>
<path d="M420 3090 c-59 -59 -14 -141 70 -128 13 2 32 15 43 30 51 69 -52 159
-113 98z m94 -16 c34 -33 4 -104 -44 -104 -26 0 -60 34 -60 62 0 49 69 78 104
42z"/>
<path d="M3702 3037 c-31 -37 -58 -148 -32 -132 6 3 10 16 10 28 0 12 9 42 20
66 21 45 21 62 2 38z"/>
<path d="M4301 3035 c3 -5 13 -34 24 -62 11 -29 23 -53 27 -53 12 0 -20 92
-38 109 -9 9 -15 12 -13 6z"/>
<path d="M4422 3008 c6 -18 28 -21 28 -4 0 9 -7 16 -16 16 -9 0 -14 -5 -12
-12z"/>
<path d="M567 2924 c-51 -27 -62 -100 -22 -139 l24 -25 336 0 336 0 24 25 c28
27 32 63 10 104 -16 32 -66 57 -92 46 -15 -6 -12 -9 15 -15 47 -11 72 -37 72
-76 0 -65 5 -64 -370 -64 l-340 0 -16 25 c-29 45 8 115 62 115 14 0 23 4 19
10 -8 14 -25 12 -58 -6z"/>
<path d="M4425 2900 c4 -6 11 -8 16 -5 14 9 11 15 -7 15 -8 0 -12 -5 -9 -10z"/>
<path d="M3642 2859 c-1 -30 0 -30 19 -13 14 13 16 20 8 31 -18 21 -26 16 -27
-18z"/>
<path d="M615 2861 c-7 -12 12 -24 25 -16 11 7 4 25 -10 25 -5 0 -11 -4 -15
-9z"/>
<path d="M690 2857 c0 -10 49 -12 228 -11 256 1 242 1 242 14 0 6 -85 10 -235
10 -184 0 -235 -3 -235 -13z"/>
<path d="M430 2850 c0 -5 4 -10 9 -10 6 0 13 5 16 10 3 6 -1 10 -9 10 -9 0
-16 -4 -16 -10z"/>
<path d="M4425 2850 c-3 -5 -1 -10 4 -10 6 0 11 5 11 10 0 6 -2 10 -4 10 -3 0
-8 -4 -11 -10z"/>
<path d="M3661 2813 c-1 -30 36 -128 54 -143 20 -17 19 -7 -5 40 -11 22 -20
45 -20 52 -1 7 -7 27 -15 43 -12 26 -13 27 -14 8z"/>
<path d="M4420 2790 c0 -5 4 -10 9 -10 6 0 13 5 16 10 3 6 -1 10 -9 10 -9 0
-16 -4 -16 -10z"/>
<path d="M4315 2738 c-11 -29 -21 -56 -23 -60 -2 -5 1 -8 6 -8 9 0 52 92 52
111 0 25 -18 3 -35 -43z"/>
<path d="M4420 2710 c0 -13 -5 -18 -15 -14 -8 4 -15 1 -15 -5 0 -6 7 -11 15
-11 8 0 15 -7 15 -15 0 -8 5 -15 10 -15 6 0 10 7 10 15 0 8 8 15 18 15 16 1
16 1 0 14 -10 7 -18 18 -18 25 0 6 -4 11 -10 11 -5 0 -10 -9 -10 -20z"/>
<path d="M629 2640 l-30 -29 3 -485 3 -486 28 -27 27 -28 230 0 230 0 27 28
28 27 3 473 c1 259 0 481 -2 492 -3 11 -15 30 -26 43 -20 22 -26 22 -256 22
l-236 0 -29 -30z m491 -100 l0 -30 -230 0 -230 0 0 30 0 30 230 0 230 0 0 -30z
m-397 -65 c1 -5 -10 -11 -25 -13 -16 -2 -28 1 -28 7 0 20 49 26 53 6z m197
-60 c0 -12 -17 -15 -95 -15 -87 0 -107 5 -88 23 3 4 46 7 95 7 72 0 88 -3 88
-15z m188 -57 c-4 -10 -55 -14 -201 -16 -171 -2 -197 0 -197 13 0 13 28 15
201 15 156 0 200 -3 197 -12z m0 -100 c-4 -10 -52 -14 -189 -16 -186 -3 -215
0 -204 18 10 16 398 13 393 -2z m-308 -56 c0 -13 -12 -22 -22 -16 -10 6 -1 24
13 24 5 0 9 -4 9 -8z m300 -2 c0 -6 -52 -10 -135 -10 -83 0 -135 4 -135 10 0
6 52 10 135 10 83 0 135 -4 135 -10z m-2 -57 c3 -10 -43 -13 -207 -13 -180 0
-211 2 -211 15 0 13 29 14 207 12 154 -1 207 -5 211 -14z m7 -58 c0 -11 -398
-20 -424 -10 -14 5 -14 7 -1 16 20 13 425 7 425 -6z m-305 -65 c0 -6 -28 -10
-65 -10 -37 0 -65 4 -65 10 0 6 28 10 65 10 37 0 65 -4 65 -10z m310 0 c0 -6
-40 -10 -100 -10 -60 0 -100 4 -100 10 0 6 40 10 100 10 60 0 100 -4 100 -10z
m-345 -60 c-3 -5 -10 -10 -16 -10 -5 0 -9 5 -9 10 0 6 7 10 16 10 8 0 12 -4 9
-10z m185 0 c0 -6 -32 -10 -75 -10 -43 0 -75 4 -75 10 0 6 32 10 75 10 43 0
75 -4 75 -10z m155 0 c-3 -5 -24 -10 -46 -10 -21 0 -39 5 -39 10 0 6 21 10 46
10 27 0 43 -4 39 -10z m-305 -61 c0 -5 -7 -9 -15 -9 -15 0 -20 12 -9 23 8 8
24 -1 24 -14z m300 6 c0 -13 -22 -15 -135 -15 -75 0 -135 4 -135 9 0 16 23 19
148 20 102 1 122 -1 122 -14z m-250 -65 c0 -6 -35 -10 -85 -10 -50 0 -85 4
-85 10 0 6 35 10 85 10 50 0 85 -4 85 -10z m255 0 c-3 -6 -50 -10 -106 -10
-59 0 -99 4 -99 10 0 6 42 10 106 10 67 0 103 -4 99 -10z m23 -67 l3 -23 -235
0 -236 0 0 25 0 25 233 -2 232 -3 3 -22z m-210 -85 c28 -28 1 -75 -37 -63 -25
8 -34 31 -21 56 12 21 40 25 58 7z"/>
<path d="M3720 2640 l-25 -19 35 -30 c48 -42 165 -99 219 -107 62 -10 46 11
-21 26 -61 15 -99 32 -146 67 -25 19 -31 29 -26 47 8 32 -7 38 -36 16z"/>
<path d="M1260 2625 c0 -8 7 -15 15 -15 8 0 15 7 15 15 0 8 -7 15 -15 15 -8 0
-15 -7 -15 -15z"/>
<path d="M459 2600 c-23 -13 -32 -56 -18 -83 7 -12 24 -36 40 -54 l28 -32 30
48 c34 53 39 91 15 115 -17 18 -70 21 -95 6z m78 -8 c12 -8 16 -24 14 -60 -2
-34 -43 -50 -76 -28 -43 28 -27 96 23 96 15 0 32 -4 39 -8z"/>
<path d="M3779 2597 c24 -29 112 -68 163 -72 l53 -5 -50 15 c-27 8 -76 29
-107 45 -62 33 -76 37 -59 17z"/>
<path d="M4340 2462 l0 -113 43 33 c94 73 112 98 69 98 -9 0 -38 21 -64 47
l-48 47 0 -112z m100 -7 c0 -8 -64 -64 -72 -65 -5 0 -8 16 -8 35 0 34 1 35 40
35 22 0 40 -2 40 -5z"/>
<path d="M1267 2553 c-12 -11 -8 -23 8 -23 8 0 15 7 15 15 0 16 -12 20 -23 8z"/>
<path d="M3650 2495 c0 -31 26 -43 47 -22 21 21 9 47 -22 47 -20 0 -25 -5 -25
-25z m40 -6 c0 -5 -7 -9 -15 -9 -15 0 -20 12 -9 23 8 8 24 -1 24 -14z"/>
<path d="M1266 2501 c-4 -5 -2 -12 3 -15 5 -4 12 -2 15 3 4 5 2 12 -3 15 -5 4
-12 2 -15 -3z"/>
<path d="M1267 2453 c-13 -12 -7 -33 8 -33 8 0 15 9 15 20 0 20 -11 26 -23 13z"/>
<path d="M3825 2393 c-11 -3 -28 -12 -37 -21 -17 -14 -18 -45 -18 -383 l0
-368 24 -28 24 -28 201 0 c197 0 200 1 225 24 l26 24 0 372 c0 365 0 372 -21
391 -19 17 -39 19 -213 20 -105 1 -200 -1 -211 -3z m273 -59 c62 -25 132 -104
132 -149 0 -24 -17 -17 -24 10 -8 31 -61 92 -95 109 -98 49 -220 7 -261 -90
-20 -46 -47 -62 -35 -21 37 121 171 188 283 141z m17 -68 c86 -66 88 -181 6
-264 -18 -18 -37 -32 -43 -32 -6 0 0 9 13 20 23 20 -40 -15 -152 -83 -84 -51
-122 -147 -87 -221 19 -43 82 -46 76 -3 -4 24 -28 36 -28 13 0 -22 -17 -20
-30 3 -32 61 3 134 92 194 56 37 58 38 87 22 44 -22 100 -73 117 -106 17 -34
18 -101 2 -117 -19 -19 -30 -14 -23 9 8 25 -12 23 -29 -3 -11 -19 7 -48 31
-48 30 0 63 47 63 90 0 69 -41 130 -128 189 -18 12 -30 27 -26 32 7 11 55 -20
111 -74 78 -75 91 -186 26 -236 -33 -27 -79 -27 -95 -1 -11 17 -24 20 -78 20
-54 0 -67 -3 -78 -20 -18 -29 -67 -26 -97 6 -63 68 -31 194 67 264 84 59 81
54 45 74 l-32 17 24 -20 c13 -12 19 -21 14 -21 -5 0 -23 15 -40 33 -94 99 -83
219 27 275 57 30 116 25 165 -12z m-273 -200 c14 -43 15 -60 6 -90 -17 -53
-28 -44 -28 23 0 32 -3 73 -6 90 -11 51 10 35 28 -23z m395 39 c-4 -8 -9 -48
-13 -90 -7 -76 -24 -104 -24 -39 0 23 -4 33 -11 28 -6 -3 -4 7 4 22 8 16 18
44 22 62 3 17 11 32 17 32 6 0 8 -7 5 -15z"/>
<path d="M3975 2265 c-45 -16 -81 -55 -91 -97 -13 -62 16 -111 98 -165 l37
-25 33 20 c18 11 48 36 67 55 65 68 48 163 -38 207 -47 23 -53 24 -106 5z
m145 -135 c0 -6 -35 -10 -87 -9 -60 1 -80 4 -63 9 37 12 150 12 150 0z"/>
<path d="M3990 1827 c0 -7 8 -20 19 -29 10 -8 20 -21 22 -27 7 -19 39 -1 39
20 0 13 -7 19 -24 19 -13 0 -26 7 -30 15 -7 18 -26 20 -26 2z"/>
<path d="M447 2372 c-10 -10 -17 -24 -17 -31 0 -11 49 -91 56 -91 10 0 2 20
-20 53 -22 32 -23 37 -9 57 11 15 23 20 45 18 47 -5 57 -29 30 -76 -12 -22
-22 -48 -21 -58 0 -15 2 -15 10 5 5 13 18 36 29 51 11 15 20 35 20 42 0 44
-91 65 -123 30z"/>
<path d="M3690 2350 c0 -22 2 -40 4 -40 2 0 6 18 8 40 2 22 0 40 -4 40 -5 0
-8 -18 -8 -40z"/>
<path d="M1260 2360 c0 -11 7 -20 15 -20 8 0 15 9 15 20 0 11 -7 20 -15 20 -8
0 -15 -9 -15 -20z"/>
<path d="M1265 2310 c-3 -5 1 -10 10 -10 9 0 13 5 10 10 -3 6 -8 10 -10 10 -2
0 -7 -4 -10 -10z"/>
<path d="M1260 2260 c0 -5 7 -10 15 -10 8 0 15 5 15 10 0 6 -7 10 -15 10 -8 0
-15 -4 -15 -10z"/>
<path d="M3674 2110 c0 -80 2 -112 3 -72 2 39 2 105 0 145 -1 39 -3 7 -3 -73z"/>
<path d="M4324 2234 c3 -9 6 -38 6 -65 l0 -49 48 0 c87 0 92 4 92 71 l0 59
-76 0 c-65 0 -75 -2 -70 -16z m128 -24 c6 -41 0 -44 -34 -15 -33 28 -48 31
-66 13 -9 -9 -12 -8 -12 4 0 20 14 26 66 27 39 1 42 -1 46 -29z"/>
<path d="M1230 2185 c0 -11 11 -15 40 -15 29 0 40 4 40 15 0 11 -11 15 -40 15
-29 0 -40 -4 -40 -15z"/>
<path d="M450 2145 c-16 -20 -5 -62 19 -70 42 -13 72 25 51 65 -13 24 -52 27
-70 5z m55 -25 c0 -18 -6 -26 -22 -28 -18 -3 -23 1 -23 21 0 28 9 39 30 35 9
-2 15 -14 15 -28z"/>
<path d="M480 2114 c0 -8 5 -12 10 -9 6 3 10 10 10 16 0 5 -4 9 -10 9 -5 0
-10 -7 -10 -16z"/>
<path d="M4372 2088 c-7 -7 -12 -17 -12 -23 0 -7 -9 -20 -19 -29 -19 -17 -18
-18 5 -43 27 -29 30 -43 12 -61 -8 -8 -5 -16 13 -31 13 -11 26 -20 29 -21 3 0
26 20 50 45 40 41 42 46 28 62 -8 10 -13 24 -11 31 6 15 -54 82 -72 82 -6 0
-16 -5 -23 -12z m55 -77 l39 -39 -34 -37 c-26 -28 -36 -34 -43 -24 -5 9 -1 21
11 34 25 27 25 33 -1 37 -31 4 -46 32 -30 52 8 9 15 16 16 16 1 0 20 -18 42
-39z"/>
<path d="M1234 2075 c-12 -30 5 -65 30 -65 19 0 25 6 29 33 2 17 3 35 0 40 -8
13 -54 7 -59 -8z"/>
<path d="M3671 1934 c0 -11 3 -14 6 -6 3 7 2 16 -1 19 -3 4 -6 -2 -5 -13z"/>
<path d="M462 1857 c-23 -23 -42 -47 -42 -53 0 -5 20 -27 45 -48 l46 -37 19
23 c15 19 16 25 6 36 -10 10 -18 11 -40 1 -22 -11 -29 -10 -43 3 -31 31 11 73
49 49 15 -9 22 -9 34 4 14 13 13 17 -3 40 -10 13 -20 25 -23 25 -3 0 -25 -19
-48 -43z"/>
<path d="M1243 1845 c0 -27 2 -38 4 -22 2 15 2 37 0 50 -2 12 -4 0 -4 -28z"/>
<path d="M3685 1840 c3 -5 8 -10 11 -10 2 0 4 5 4 10 0 6 -5 10 -11 10 -5 0
-7 -4 -4 -10z"/>
<path d="M4408 1824 c-12 -13 -20 -14 -37 -5 -21 12 -31 -2 -11 -14 6 -3 10
-13 10 -21 0 -8 -4 -12 -10 -9 -5 3 -10 2 -10 -4 0 -17 20 -23 35 -11 9 7 15
8 20 0 9 -15 22 -12 29 6 3 8 2 12 -3 9 -18 -11 -23 16 -6 35 20 22 4 35 -17
14z"/>
<path d="M4385 1751 c-3 -5 -1 -12 5 -16 5 -3 10 1 10 9 0 18 -6 21 -15 7z"/>
<path d="M511 1673 c-1 -15 -7 -23 -18 -23 -17 -1 -17 -1 0 -11 9 -5 17 -18
18 -27 0 -12 3 -11 9 6 5 12 15 22 22 22 7 0 6 5 -4 13 -9 6 -18 19 -21 27 -4
10 -6 7 -6 -7z"/>
<path d="M4350 1661 c0 -5 5 -13 10 -16 8 -5 7 -11 -1 -21 -14 -17 2 -19 19
-2 17 17 15 26 -8 38 -12 7 -20 7 -20 1z"/>
<path d="M4370 1534 c0 -8 5 -12 10 -9 6 3 10 10 10 16 0 5 -4 9 -10 9 -5 0
-10 -7 -10 -16z"/>
<path d="M3847 1533 c-5 -12 -1 -72 6 -79 3 -4 2 -15 -3 -24 -7 -12 -6 -21 3
-29 10 -8 13 5 13 64 1 66 -7 91 -19 68z"/>
<path d="M4095 1530 c4 -6 11 -8 16 -5 14 9 11 15 -7 15 -8 0 -12 -5 -9 -10z"/>
<path d="M1028 1519 c-21 -12 -24 -49 -6 -67 18 -18 56 -14 68 7 14 27 13 37
-6 55 -18 18 -32 20 -56 5z m49 -25 c3 -8 -2 -23 -11 -32 -15 -15 -17 -15 -33
0 -13 14 -14 20 -3 32 16 20 39 20 47 0z"/>
<path d="M486 1513 c-11 -11 -6 -23 9 -23 8 0 15 4 15 9 0 13 -16 22 -24 14z"/>
<path d="M690 1506 c0 -7 14 -16 31 -20 28 -5 31 -9 26 -35 -7 -34 16 -71 44
-71 12 0 19 -7 19 -20 0 -11 5 -20 11 -20 7 0 8 23 3 69 l-6 70 28 6 c49 11
56 14 49 25 -3 6 -50 10 -106 10 -77 0 -99 -3 -99 -14z"/>
<path d="M4216 1499 c-17 -17 -18 -19 -3 -19 9 0 17 -7 17 -15 0 -8 5 -15 10
-15 6 0 10 6 10 14 0 8 6 17 13 19 10 4 10 6 0 6 -7 1 -13 8 -13 16 0 20 -11
18 -34 -6z"/>
<path d="M3925 1490 c-3 -5 1 -10 9 -10 9 0 16 5 16 10 0 6 -4 10 -9 10 -6 0
-13 -4 -16 -10z"/>
<path d="M3980 1490 c0 -5 7 -10 16 -10 8 0 12 5 9 10 -3 6 -10 10 -16 10 -5
0 -9 -4 -9 -10z"/>
<path d="M4100 1490 c0 -5 5 -10 11 -10 5 0 7 5 4 10 -3 6 -8 10 -11 10 -2 0
-4 -4 -4 -10z"/>
<path d="M4390 1435 c0 -9 5 -15 11 -13 6 2 11 8 11 13 0 5 -5 11 -11 13 -6 2
-11 -4 -11 -13z"/>
<path d="M542 1428 c6 -18 28 -21 28 -4 0 9 -7 16 -16 16 -9 0 -14 -5 -12 -12z"/>
<path d="M650 1425 c0 -9 5 -15 11 -13 6 2 11 8 11 13 0 5 -5 11 -11 13 -6 2
-11 -4 -11 -13z"/>
<path d="M944 1404 c-4 -10 -16 -30 -28 -43 -20 -23 -20 -23 -1 -13 14 7 26 7
38 1 21 -12 22 -27 0 -51 -9 -10 -14 -21 -10 -24 3 -3 24 14 46 37 38 41 49
66 17 40 -11 -9 -20 -10 -35 -1 -23 12 -28 36 -8 43 9 4 9 7 0 17 -10 11 -14
10 -19 -6z"/>
<path d="M3930 1406 c0 -9 5 -16 10 -16 6 0 10 4 10 9 0 6 -4 13 -10 16 -5 3
-10 -1 -10 -9z"/>
<path d="M3986 1411 c-4 -5 -2 -12 3 -15 5 -4 12 -2 15 3 4 5 2 12 -3 15 -5 4
-12 2 -15 -3z"/>
<path d="M4101 1394 c0 -11 3 -14 6 -6 3 7 2 16 -1 19 -3 4 -6 -2 -5 -13z"/>
<path d="M3850 1370 c0 -5 5 -10 10 -10 6 0 10 5 10 10 0 6 -4 10 -10 10 -5 0
-10 -4 -10 -10z"/>
<path d="M500 1360 c0 -5 5 -10 11 -10 5 0 7 5 4 10 -3 6 -8 10 -11 10 -2 0
-4 -4 -4 -10z"/>
<path d="M4254 1325 c-4 -9 -2 -21 4 -27 15 -15 44 -1 40 19 -4 23 -36 29 -44
8z"/>
<path d="M1080 1319 c0 -5 5 -7 10 -4 6 3 10 8 10 11 0 2 -4 4 -10 4 -5 0 -10
-5 -10 -11z"/>
<path d="M3846 1309 c-8 -12 -12 -28 -9 -35 6 -16 29 -19 38 -4 10 16 74 40
106 40 39 0 79 -17 110 -46 24 -23 27 -24 31 -7 6 23 -8 63 -22 63 -7 0 -7 -7
1 -22 l11 -21 -33 20 c-51 31 -105 36 -165 15 -49 -17 -51 -17 -46 0 6 24 -4
23 -22 -3z"/>
<path d="M542 1309 c2 -6 8 -10 13 -10 5 0 11 4 13 10 2 6 -4 11 -13 11 -9 0
-15 -5 -13 -11z"/>
<path d="M1116 1273 c-11 -11 -6 -23 9 -23 8 0 15 4 15 9 0 13 -16 22 -24 14z"/>
<path d="M3933 1258 c-13 -6 -23 -15 -23 -20 0 -5 9 -4 19 2 27 14 94 13 109
-2 9 -9 12 -9 12 0 0 27 -76 40 -117 20z"/>
<path d="M794 1244 c-21 -7 -44 -21 -51 -30 -23 -31 -27 -86 -10 -134 8 -25
13 -60 10 -78 -5 -28 0 -37 32 -67 20 -19 45 -35 56 -35 29 0 59 18 59 35 0 8
7 15 15 15 12 0 15 11 14 48 -1 26 4 60 10 75 44 111 -31 207 -135 171z m74
-15 c35 -12 62 -48 62 -82 0 -13 -11 -51 -24 -85 -20 -51 -22 -62 -10 -62 9 0
14 -7 12 -17 -2 -10 -10 -18 -18 -18 -8 0 -17 -9 -20 -20 -3 -11 -16 -21 -28
-23 -24 -4 -55 15 -47 28 3 4 -4 10 -15 13 -11 3 -20 12 -20 21 0 13 11 16 55
16 54 0 55 1 55 29 0 24 -4 28 -19 24 -10 -3 -28 0 -40 6 -19 11 -21 9 -21
-14 0 -42 -14 -28 -38 38 -27 76 -20 106 30 137 38 23 44 24 86 9z"/>
<path d="M1016 1197 c-38 -27 2 -95 42 -71 24 16 28 55 6 71 -10 7 -21 13 -24
13 -3 0 -14 -6 -24 -13z m41 -18 c16 -16 5 -39 -17 -39 -25 0 -35 18 -20 35
15 18 22 19 37 4z"/>
<path d="M620 1170 c0 -5 7 -10 15 -10 8 0 15 5 15 10 0 6 -7 10 -15 10 -8 0
-15 -4 -15 -10z"/>
<path d="M3860 1168 c0 -21 37 -76 58 -87 35 -19 32 1 -6 37 -26 24 -33 36
-23 40 8 2 18 -2 22 -10 5 -9 22 -21 38 -27 26 -11 33 -10 70 14 22 15 45 25
52 23 13 -4 -13 -30 -80 -80 -56 -42 -70 -78 -45 -116 10 -15 19 -45 19 -67 0
-38 2 -40 32 -43 39 -4 43 4 69 121 13 59 14 81 6 89 -9 9 -12 9 -12 0 0 -7
-6 -12 -14 -12 -7 0 -25 -9 -39 -20 -16 -13 -28 -17 -32 -10 -9 14 9 35 51 60
29 18 74 75 74 94 0 3 -54 6 -120 6 -89 0 -120 -3 -120 -12z m174 -189 c-32
-34 -49 -36 -64 -10 -15 28 -12 33 10 19 17 -11 24 -9 47 15 37 36 43 14 7
-24z m-20 -78 c17 -7 17 -8 1 -24 -19 -20 -35 -14 -35 14 0 20 4 22 34 10z"/>
<path d="M2238 1153 c-2 -5 -1 -33 3 -63 l6 -55 1 52 c2 38 7 55 20 62 15 9
15 10 -5 11 -12 0 -23 -3 -25 -7z"/>
<path d="M3453 1153 c9 -2 25 -2 35 0 9 3 1 5 -18 5 -19 0 -27 -2 -17 -5z"/>
<path d="M3558 1153 c7 -3 16 -2 19 1 4 3 -2 6 -13 5 -11 0 -14 -3 -6 -6z"/>
<path d="M3620 1150 c0 -5 12 -10 26 -10 14 0 23 4 19 10 -3 6 -15 10 -26 10
-10 0 -19 -4 -19 -10z"/>
<path d="M3760 1114 c0 -8 5 -12 10 -9 6 3 10 10 10 16 0 5 -4 9 -10 9 -5 0
-10 -7 -10 -16z"/>
<path d="M4159 1108 c-10 -18 -8 -24 10 -39 25 -21 48 -16 56 12 14 44 -44 67
-66 27z"/>
<path d="M2792 1094 c-21 -15 -22 -20 -22 -199 0 -172 1 -185 19 -195 12 -6
107 -10 240 -10 l221 0 0 -24 c0 -50 8 -56 75 -56 74 0 75 1 75 106 l0 74 -37
2 c-21 1 -48 1 -61 0 -16 -1 -22 4 -20 15 2 9 9 18 17 21 8 3 11 0 7 -7 -5 -7
2 -11 18 -11 15 0 26 7 29 18 4 16 5 16 6 0 1 -11 9 -18 21 -18 19 0 20 7 20
138 0 94 -4 142 -12 150 -9 9 -88 12 -293 12 -238 0 -284 -2 -303 -16z m518
-14 c0 -5 7 -10 15 -10 8 0 15 5 15 10 0 15 17 12 24 -5 4 -12 -4 -15 -39 -15
-35 0 -43 3 -39 15 7 17 24 20 24 5z m-286 -55 c3 -9 0 -15 -9 -15 -8 0 -15 7
-15 15 0 8 4 15 9 15 5 0 11 -7 15 -15z m289 0 c7 -18 -6 -27 -27 -19 -12 5
-13 9 -3 20 16 17 24 17 30 -1z m47 0 c0 -8 -7 -15 -16 -15 -14 0 -14 3 -4 15
7 8 14 15 16 15 2 0 4 -7 4 -15z m-113 -17 c-3 -8 -6 -5 -6 6 -1 11 2 17 5 13
3 -3 4 -12 1 -19z m-316 -23 c-1 -15 -24 -12 -29 3 -3 9 2 13 12 10 10 -1 17
-7 17 -13z m189 6 c0 -14 -18 -23 -30 -16 -6 4 -8 11 -5 16 8 12 35 12 35 0z
m-61 -37 c37 -31 40 -63 8 -100 -33 -37 -81 -37 -114 0 -12 15 -23 38 -23 51
0 27 51 75 80 75 10 0 32 -12 49 -26z m251 16 c0 -5 7 -10 15 -10 8 0 15 5 15
10 0 6 5 10 10 10 6 0 10 -7 10 -15 0 -12 -13 -15 -60 -15 -33 0 -60 4 -60 9
0 5 9 7 20 4 11 -3 20 0 20 6 0 6 7 11 15 11 8 0 15 -4 15 -10z m0 -55 c0 -8
-7 -15 -15 -15 -16 0 -20 12 -8 23 11 12 23 8 23 -8z m52 0 c0 -5 -5 -11 -11
-13 -6 -2 -11 4 -11 13 0 9 5 15 11 13 6 -2 11 -8 11 -13z m-462 -10 c0 -8 -7
-15 -15 -15 -8 0 -15 7 -15 15 0 8 7 15 15 15 8 0 15 -7 15 -15z m250 0 c0 -8
-7 -15 -15 -15 -8 0 -15 7 -15 15 0 8 7 15 15 15 8 0 15 -7 15 -15z m163 -37
c3 -10 9 -10 26 0 18 10 21 10 21 -3 0 -12 -13 -15 -60 -15 -33 0 -60 4 -60 9
0 4 11 6 25 3 15 -2 25 0 25 7 0 15 17 14 23 -1z m-383 -48 c0 -21 -15 -27
-25 -10 -7 12 2 30 16 30 5 0 9 -9 9 -20z m188 -2 c-6 -18 -28 -21 -28 -4 0 9
7 16 16 16 9 0 14 -5 12 -12z m147 -18 c3 -5 -1 -10 -9 -10 -9 0 -16 5 -16 10
0 6 4 10 9 10 6 0 13 -4 16 -10z m-235 -20 c0 -5 -7 -10 -15 -10 -8 0 -15 5
-15 10 0 6 7 10 15 10 8 0 15 -4 15 -10z m274 -38 c-22 -5 -31 7 -14 18 9 6
17 5 22 -3 4 -7 1 -13 -8 -15z m55 -1 c-15 -5 -22 6 -14 19 6 9 10 9 16 -1 5
-8 4 -15 -2 -18z m-45 -36 c4 -10 -1 -15 -14 -15 -20 0 -26 11 -13 23 10 11
20 8 27 -8z m50 0 c4 -10 -1 -15 -16 -15 -17 0 -18 2 -8 15 7 8 14 15 15 15 2
0 5 -7 9 -15z m-54 -55 c0 -5 -4 -10 -10 -10 -5 0 -10 5 -10 10 0 6 5 10 10
10 6 0 10 -4 10 -10z m47 -12 c-3 -8 -6 -5 -6 6 -1 11 2 17 5 13 3 -3 4 -12 1
-19z"/>
<path d="M1259 1071 l-29 -29 0 -234 c0 -128 3 -243 6 -256 13 -47 45 -52 291
-50 l228 2 -231 5 c-209 5 -234 8 -253 25 -20 18 -21 28 -21 263 0 230 1 244
20 263 19 19 33 20 439 20 397 0 420 -1 442 -19 24 -19 24 -21 27 -248 3 -226
-3 -279 -30 -287 -7 -3 -25 -7 -40 -10 -17 -4 -28 -13 -28 -23 0 -9 -10 -27
-22 -40 l-21 -23 52 0 c35 0 50 4 45 11 -3 6 -17 9 -30 6 -28 -5 -27 -5 -13
26 6 13 25 27 42 33 50 14 57 41 57 212 l0 152 48 0 c46 0 49 -2 61 -35 6 -19
30 -50 52 -68 99 -85 253 -41 290 82 8 25 18 41 28 41 15 1 15 2 0 13 -8 7
-21 27 -27 46 -16 47 -57 98 -92 116 -16 8 -53 15 -82 15 -93 0 -170 -64 -184
-152 -8 -46 -15 -52 -60 -44 l-34 7 0 69 c0 80 -12 113 -47 129 -16 7 -156 11
-439 11 l-416 0 -29 -29z m1291 -30 c42 -20 80 -88 80 -141 -1 -82 -68 -160
-139 -160 -27 0 -31 3 -31 28 0 22 7 30 40 44 27 11 45 27 57 52 16 34 16 38
0 72 -12 25 -30 41 -57 52 -35 15 -40 21 -40 50 0 30 2 32 28 26 15 -3 43 -14
62 -23z m-148 -37 c-18 -14 -41 -42 -52 -62 -17 -32 -19 -34 -20 -13 0 25 68
101 91 101 8 0 -1 -12 -19 -26z m122 -55 c14 -17 26 -39 26 -49 0 -10 -12 -32
-26 -49 -32 -38 -90 -43 -119 -11 -27 30 -25 97 4 121 36 30 84 25 115 -12z"/>
<path d="M3470 1080 c0 -11 4 -20 9 -20 5 0 11 9 14 20 3 13 0 20 -9 20 -8 0
-14 -9 -14 -20z"/>
<path d="M3552 1080 c9 -14 14 -16 20 -7 13 20 9 27 -12 27 -18 0 -19 -3 -8
-20z"/>
<path d="M3628 1093 c6 -2 18 -2 25 0 6 3 1 5 -13 5 -14 0 -19 -2 -12 -5z"/>
<path d="M1095 1068 c-108 -59 -159 -221 -88 -280 15 -12 16 -9 10 27 -4 22
-10 50 -13 63 -9 31 10 28 22 -5 8 -25 12 -20 62 79 28 57 52 110 52 116 0 15
-19 15 -45 0z m-15 -99 c0 -5 -7 -9 -15 -9 -15 0 -20 12 -9 23 8 8 24 -1 24
-14z"/>
<path d="M2668 1060 c-15 -17 -15 -20 -3 -20 8 0 15 -6 15 -12 0 -9 3 -10 8
-2 4 6 14 14 22 17 12 4 12 6 -2 6 -9 1 -18 8 -20 16 -2 13 -6 12 -20 -5z"/>
<path d="M1097 924 c-32 -68 -57 -129 -55 -136 2 -6 24 8 50 33 52 50 71 101
66 178 l-3 49 -58 -124z"/>
<path d="M650 1030 c0 -5 5 -10 10 -10 6 0 10 5 10 10 0 6 -4 10 -10 10 -5 0
-10 -4 -10 -10z"/>
<path d="M1330 1015 c-20 -25 -1 -35 66 -35 62 0 64 1 64 25 0 24 -3 25 -59
25 -39 0 -63 -5 -71 -15z"/>
<path d="M1507 1023 c-4 -3 -7 -15 -7 -25 0 -16 9 -18 90 -18 89 0 90 0 90 25
0 25 -1 25 -83 25 -46 0 -87 -3 -90 -7z"/>
<path d="M1757 1013 c-12 -11 -8 -23 8 -23 8 0 15 7 15 15 0 16 -12 20 -23 8z"/>
<path d="M1924 1009 c-10 -17 13 -36 27 -22 12 12 4 33 -11 33 -5 0 -12 -5
-16 -11z"/>
<path d="M1994 1009 c-10 -17 13 -36 27 -22 12 12 4 33 -11 33 -5 0 -12 -5
-16 -11z"/>
<path d="M2064 1009 c-10 -17 13 -36 27 -22 12 12 4 33 -11 33 -5 0 -12 -5
-16 -11z"/>
<path d="M3563 980 c0 -25 2 -35 4 -22 2 12 2 32 0 45 -2 12 -4 2 -4 -23z"/>
<path d="M3643 977 c-29 -23 -63 -49 -75 -58 -13 -10 -20 -20 -17 -23 3 -4 17
3 32 14 14 11 28 20 31 20 3 0 6 -52 6 -115 0 -70 4 -115 10 -115 6 0 10 14
10 30 0 23 4 30 20 30 16 0 20 -7 20 -30 0 -16 5 -30 10 -30 6 0 10 18 10 39
0 37 -2 40 -32 43 l-33 3 -3 74 c-3 71 -2 75 29 107 l31 32 69 -50 c81 -59 99
-78 75 -78 -10 0 -16 -8 -16 -24 0 -12 -3 -51 -6 -85 -5 -43 -3 -61 5 -61 7 0
11 25 11 75 l0 75 30 0 c53 0 48 5 -102 125 -31 25 -58 45 -60 45 -2 0 -26
-19 -55 -43z"/>
<path d="M3470 935 c0 -43 4 -75 10 -75 6 0 10 32 10 75 0 43 -4 75 -10 75 -6
0 -10 -32 -10 -75z"/>
<path d="M4130 995 c0 -8 5 -15 10 -15 6 0 10 7 10 15 0 8 -4 15 -10 15 -5 0
-10 -7 -10 -15z"/>
<path d="M1348 929 c-16 -9 -18 -28 -18 -172 0 -114 4 -167 12 -175 17 -17
739 -17 756 0 15 15 17 315 2 338 -8 13 -62 15 -372 17 -238 2 -369 -1 -380
-8z m678 -74 c20 -30 10 -63 -23 -76 -51 -19 -94 41 -58 81 25 27 61 25 81 -5z
m-206 0 c0 -13 -30 -15 -210 -15 -192 0 -223 4 -203 23 3 4 98 7 210 7 174 0
203 -2 203 -15z m-160 -70 c0 -13 -14 -15 -82 -13 -54 2 -83 7 -86 16 -3 9 18
12 82 12 71 0 86 -3 86 -15z m360 -63 c30 -24 21 -68 -16 -82 -55 -21 -99 46
-54 82 12 10 28 18 35 18 7 0 23 -8 35 -18z m-140 -2 c0 -6 -65 -10 -175 -10
-110 0 -175 4 -175 10 0 6 65 10 175 10 110 0 175 -4 175 -10z m-182 -62 c-3
-8 -24 -13 -58 -13 -34 0 -55 5 -57 13 -4 9 12 12 57 12 45 0 61 -3 58 -12z
m180 0 c-3 -9 -27 -13 -73 -13 -46 0 -70 4 -72 13 -4 9 15 12 72 12 57 0 76
-3 73 -12z"/>
<path d="M1953 844 c-6 -17 6 -45 23 -51 21 -7 47 23 40 45 -9 27 -53 30 -63
6z"/>
<path d="M1954 705 c-14 -37 26 -69 53 -42 22 22 8 57 -23 57 -14 0 -27 -7
-30 -15z"/>
<path d="M3563 790 c0 -41 2 -58 4 -37 2 20 2 54 0 75 -2 20 -4 3 -4 -38z"/>
<path d="M3470 765 c0 -31 4 -54 8 -51 12 7 14 93 2 101 -6 4 -10 -14 -10 -50z"/>
<path d="M890 776 c0 -9 5 -16 10 -16 6 0 10 4 10 9 0 6 -4 13 -10 16 -5 3
-10 -1 -10 -9z"/>
<path d="M3748 740 c2 -22 8 -40 13 -40 5 0 9 18 9 40 0 26 -5 40 -13 40 -9 0
-11 -12 -9 -40z"/>
<path d="M3880 770 c0 -5 7 -10 15 -10 8 0 15 5 15 10 0 6 -7 10 -15 10 -8 0
-15 -4 -15 -10z"/>
<path d="M2680 719 c0 -16 4 -28 9 -25 8 5 3 56 -5 56 -2 0 -4 -14 -4 -31z"/>
<path d="M1082 715 c-7 -9 -8 -15 -2 -15 5 0 10 -7 10 -15 0 -18 7 -19 24 -2
11 11 11 17 1 30 -15 20 -16 20 -33 2z"/>
<path d="M2270 705 c-26 -32 13 -81 48 -59 34 22 22 74 -18 74 -10 0 -23 -7
-30 -15z m45 -15 c8 -13 -14 -42 -26 -34 -5 3 -9 14 -9 25 0 20 24 26 35 9z"/>
<path d="M2680 654 c0 -8 5 -12 10 -9 6 4 8 11 5 16 -9 14 -15 11 -15 -7z"/>
<path d="M3490 655 c7 -8 17 -12 22 -9 6 4 5 10 -3 15 -22 14 -33 10 -19 -6z"/>
<path d="M3533 658 c2 -7 10 -13 17 -13 7 0 15 6 18 13 2 7 -5 12 -18 12 -13
0 -20 -5 -17 -12z"/>
<path d="M2357 643 c-4 -3 -2 -12 4 -19 21 -26 2 -44 -46 -44 -25 0 -45 -3
-45 -6 0 -4 22 -36 49 -73 26 -36 64 -91 84 -121 20 -30 45 -66 56 -80 l20
-25 23 29 c13 16 60 84 105 150 l83 121 -45 3 c-44 3 -45 4 -45 38 l0 34 -118
0 c-65 0 -122 -3 -125 -7z m93 -43 c0 -11 -7 -20 -15 -20 -15 0 -21 21 -8 33
12 13 23 7 23 -13z m93 5 c8 -18 -11 -31 -25 -17 -11 11 -3 32 12 32 4 0 10
-7 13 -15z m-141 -80 c0 -5 -5 -11 -11 -13 -6 -2 -11 4 -11 13 0 9 5 15 11 13
6 -2 11 -8 11 -13z m96 3 c-3 -7 -11 -13 -18 -13 -7 0 -15 6 -17 13 -3 7 4 12
17 12 13 0 20 -5 18 -12z m83 -3 c-1 -15 -24 -12 -29 3 -3 9 2 13 12 10 10 -1
17 -7 17 -13z m-128 -70 c1 -5 -6 -11 -15 -13 -11 -2 -18 3 -18 13 0 17 30 18
33 0z m87 0 c0 -8 -7 -15 -15 -15 -8 0 -15 7 -15 15 0 8 7 15 15 15 8 0 15 -7
15 -15z m-44 -66 c10 -17 -13 -36 -27 -22 -12 12 -4 33 11 33 5 0 12 -5 16
-11z"/>
<path d="M2770 630 c0 -6 77 -10 210 -10 133 0 210 4 210 10 0 6 -77 10 -210
10 -133 0 -210 -4 -210 -10z"/>
<path d="M2770 570 c0 -6 77 -10 211 -10 137 0 208 3 204 10 -8 14 -415 14
-415 0z"/>
<path d="M2770 510 c0 -6 77 -10 210 -10 133 0 210 4 210 10 0 6 -77 10 -210
10 -133 0 -210 -4 -210 -10z"/>
<path d="M3256 511 c-4 -5 -2 -12 3 -15 5 -4 12 -2 15 3 4 5 2 12 -3 15 -5 4
-12 2 -15 -3z"/>
<path d="M1833 503 c52 -4 54 -8 31 -42 -11 -15 -23 -21 -35 -18 -11 3 -19 1
-19 -4 0 -5 13 -9 28 -9 23 0 33 8 48 35 14 27 25 35 46 35 31 0 33 -3 17 -32
-6 -11 -8 -22 -6 -25 5 -4 37 49 37 62 0 3 -44 4 -97 3 -54 -1 -77 -3 -50 -5z"/>
<path d="M2003 470 c-13 -25 -17 -40 -10 -40 7 0 22 18 34 40 13 25 17 40 10
40 -7 0 -22 -18 -34 -40z"/>
<path d="M2253 445 c0 -22 2 -30 4 -17 2 12 2 30 0 40 -3 9 -5 -1 -4 -23z"/>
<path d="M1370 440 c0 -6 78 -10 215 -10 137 0 215 4 215 10 0 6 -78 10 -215
10 -137 0 -215 -4 -215 -10z"/>
<path d="M2980 430 c0 -5 7 -10 15 -10 8 0 15 5 15 10 0 6 -7 10 -15 10 -8 0
-15 -4 -15 -10z"/>
<path d="M2785 409 c-10 -15 3 -25 16 -12 7 7 7 13 1 17 -6 3 -14 1 -17 -5z"/>
<path d="M2895 410 c-7 -12 2 -30 16 -30 12 0 12 27 0 35 -5 3 -12 1 -16 -5z"/>
<path d="M2260 335 c0 -8 7 -15 15 -15 8 0 15 7 15 15 0 8 -7 15 -15 15 -8 0
-15 -7 -15 -15z"/>
</g>
</svg>
