<?xml version="1.0" standalone="no"?>
<!DOCTYPE svg PUBLIC "-//W3C//DTD SVG 20010904//EN"
 "http://www.w3.org/TR/2001/REC-SVG-20010904/DTD/svg10.dtd">
<svg version="1.0" xmlns="http://www.w3.org/2000/svg"
 width="512.000000pt" height="512.000000pt" viewBox="0 0 512.000000 512.000000"
 preserveAspectRatio="xMidYMid meet">

<g transform="translate(0.000000,512.000000) scale(0.100000,-0.100000)"
fill="#FF6F61" stroke="none">
<path d="M140 4292 c-48 -6 -55 -10 -58 -31 -2 -13 1 -27 6 -30 7 -4 6 -40 -4
-109 -21 -154 -51 -463 -66 -682 -36 -534 5 -2168 58 -2327 63 -187 209 -254
524 -238 80 3 278 8 440 11 162 2 441 11 620 21 594 31 799 25 1859 -53 l495
-37 23 27 c29 34 29 77 1 111 l-23 26 -305 11 c-180 6 -552 8 -905 4 -330 -3
-672 -1 -760 4 -530 31 -692 33 -1040 16 -605 -29 -680 -23 -761 58 -55 55
-69 107 -88 321 -37 417 -41 544 -41 1205 0 543 16 1204 29 1217 1 1 44 -2 96
-7 194 -19 448 -30 915 -40 733 -15 1263 -30 1660 -46 198 -9 564 -18 813 -21
l452 -6 0 -363 0 -362 -80 -56 c-102 -72 -240 -208 -316 -311 -151 -206 -224
-437 -205 -648 l7 -68 -211 -125 c-243 -144 -240 -142 -259 -179 -19 -37 -6
-55 40 -55 38 0 183 69 362 173 l113 66 46 -30 c130 -82 314 -106 470 -63 22
6 23 4 23 -62 0 -38 -5 -195 -11 -348 l-12 -280 27 -23 c39 -33 108 -32 143 3
25 25 26 28 19 117 -3 51 -9 220 -12 377 l-7 285 74 50 c252 169 466 495 624
946 66 189 145 472 145 520 0 39 4 47 25 57 33 15 42 55 20 88 -16 24 -21 26
-65 21 -120 -14 -367 -118 -646 -271 -95 -53 -176 -96 -178 -96 -2 0 -6 174
-9 388 -4 354 -6 394 -25 470 -55 211 -166 316 -381 358 -95 19 -343 15 -531
-7 -159 -19 -1129 -16 -1640 5 -433 18 -1395 29 -1490 18z m200 -97 c436 -46
2272 -83 2810 -56 406 21 611 25 667 13 156 -34 246 -130 260 -277 l6 -63 -64
4 c-35 3 -75 7 -89 10 -14 2 -353 9 -755 14 -401 5 -935 17 -1185 25 -250 9
-769 19 -1153 22 -603 5 -697 8 -693 20 4 8 6 82 6 165 l0 150 28 -6 c15 -3
88 -13 162 -21z m4585 -972 c-4 -10 -17 -64 -30 -119 -29 -127 -95 -347 -142
-473 -171 -461 -425 -754 -737 -850 -112 -35 -219 -28 -344 21 l-52 20 82 57
c274 187 513 402 727 655 84 100 91 117 57 151 -45 45 -82 32 -135 -47 -22
-32 -28 -35 -61 -31 -41 6 -51 -3 -69 -59 -7 -20 -34 -67 -61 -105 -58 -81
-135 -166 -124 -138 4 11 15 43 25 70 24 65 25 172 2 197 -42 46 -81 5 -111
-115 -11 -47 -39 -127 -61 -180 -23 -53 -41 -106 -41 -118 0 -25 0 -25 -139
-121 l-104 -71 6 99 c12 208 91 368 287 577 221 236 559 451 875 556 137 46
161 50 150 24z"/>
<path d="M361 4059 c-77 -7 -97 -18 -88 -43 13 -32 193 -35 225 -3 14 15 14
19 2 31 -22 20 -56 24 -139 15z"/>
<path d="M640 4055 c-7 -8 -10 -21 -7 -29 6 -16 66 -36 105 -36 51 0 80 38 50
68 -18 18 -133 16 -148 -3z"/>
<path d="M920 4042 c-20 -16 -21 -20 -8 -33 8 -8 43 -20 78 -28 58 -13 64 -13
76 3 17 23 8 43 -27 61 -38 20 -92 19 -119 -3z"/>
<path d="M466 3579 c-91 -10 -113 -16 -119 -32 -10 -26 11 -39 84 -49 105 -16
2017 -12 2035 3 17 14 18 61 2 77 -9 9 -237 12 -972 11 -529 -1 -992 -5 -1030
-10z"/>
<path d="M410 3285 c-18 -22 -4 -64 23 -69 12 -3 186 -10 387 -16 201 -6 576
-17 835 -25 629 -20 774 -20 803 1 30 21 30 68 -1 89 -33 21 -563 35 -1378 35
-569 0 -658 -2 -669 -15z"/>
<path d="M965 2984 c-414 -20 -518 -32 -557 -64 l-23 -19 23 -23 c21 -21 31
-23 135 -23 61 1 281 7 487 14 308 12 450 12 795 2 l420 -12 17 22 c24 28 23
43 -6 76 l-24 27 -598 2 c-330 1 -630 0 -669 -2z"/>
<path d="M485 2599 c-48 -5 -73 -13 -82 -25 -17 -24 -16 -31 6 -53 28 -28 245
-35 766 -27 463 8 458 7 458 60 0 58 22 56 -552 55 -289 -1 -557 -5 -596 -10z"/>
<path d="M2305 2260 c-207 -16 -874 -34 -1225 -32 -281 1 -389 -2 -470 -14
-145 -21 -189 -53 -109 -81 48 -17 317 -16 534 2 234 19 1239 49 1376 41 98
-6 107 -5 124 14 15 16 17 26 9 48 -9 25 -13 27 -74 28 -36 1 -110 -2 -165 -6z"/>
<path d="M840 1909 c-167 -18 -364 -57 -377 -75 -18 -25 -16 -41 8 -65 25 -25
46 -24 559 16 421 34 578 39 770 26 349 -24 424 -26 443 -7 23 23 22 73 -2 85
-39 22 -294 31 -795 30 -287 -1 -559 -6 -606 -10z"/>
<path d="M2364 1561 c-157 -7 -174 -13 -174 -67 0 -51 25 -63 123 -57 361 20
491 46 462 94 -17 27 -186 39 -411 30z"/>
<path d="M1972 1545 c-55 -24 -53 -104 3 -125 58 -22 115 44 84 98 -19 34 -48
43 -87 27z"/>
</g>
</svg>
