<?xml version="1.0" standalone="no"?>
<!DOCTYPE svg PUBLIC "-//W3C//DTD SVG 20010904//EN"
 "http://www.w3.org/TR/2001/REC-SVG-20010904/DTD/svg10.dtd">
<svg version="1.0" xmlns="http://www.w3.org/2000/svg"
 width="500.000000pt" height="500.000000pt" viewBox="0 0 500.000000 500.000000"
 preserveAspectRatio="xMidYMid meet">

<g transform="translate(0.000000,500.000000) scale(0.100000,-0.100000)"
fill="#6d29d9" stroke="none">
<path d="M2551 4286 c-18 -6 -42 -22 -52 -35 -18 -22 -19 -51 -19 -597 0 -491
-2 -574 -14 -574 -13 0 -145 -62 -871 -409 -82 -40 -170 -82 -194 -94 -38 -19
-56 -41 -133 -162 -49 -77 -100 -160 -114 -185 -13 -25 -56 -94 -94 -155 -38
-60 -66 -113 -63 -118 5 -9 283 -146 381 -188 l43 -19 -3 -195 c-3 -210 -4
-207 53 -214 5 0 7 -6 3 -13 -4 -7 -3 -8 5 -4 6 4 82 -27 169 -70 86 -43 160
-77 165 -76 4 1 7 -2 7 -8 0 -5 8 -10 18 -10 15 0 15 -2 2 -11 -13 -9 -12 -10
2 -5 21 6 80 -13 73 -24 -3 -4 3 -14 13 -21 15 -13 16 -12 3 4 -13 16 -2 25
13 10 4 -5 12 -9 17 -9 5 -1 14 -2 19 -3 6 0 10 -8 8 -17 -2 -11 5 -18 19 -19
12 -1 20 2 17 7 -3 4 2 5 11 2 13 -5 13 -9 3 -23 -12 -14 -11 -15 5 -2 16 13
29 9 120 -35 56 -27 104 -52 107 -55 3 -3 29 -14 58 -23 29 -10 59 -24 66 -32
8 -8 22 -14 30 -14 9 0 16 -4 16 -8 0 -12 41 -8 66 6 12 6 24 8 28 5 3 -3 6
-1 6 6 0 7 4 10 9 7 5 -3 14 1 21 9 7 8 17 15 22 15 6 0 25 7 44 16 29 14 37
14 52 3 15 -13 16 -12 3 3 -11 15 -11 19 3 24 9 3 24 0 34 -7 15 -13 16 -12 4
2 -11 15 5 26 153 98 92 45 168 81 171 81 2 0 101 47 220 105 119 58 223 105
230 105 18 0 17 -7 14 212 l-2 186 193 97 c107 54 195 99 197 100 5 4 -52 106
-131 233 -38 62 -68 114 -66 116 2 2 52 -19 111 -46 122 -58 159 -59 210 -8
l28 28 0 666 0 665 -22 25 c-24 27 -96 64 -313 161 -71 32 -232 104 -357 161
-125 57 -230 104 -233 104 -6 0 -130 57 -333 151 -92 44 -202 89 -211 88 -3 0
-21 -6 -40 -13z m291 -122 c359 -163 505 -229 598 -270 266 -117 476 -217 486
-229 6 -8 14 -12 17 -9 3 3 15 -12 26 -35 21 -39 21 -53 21 -689 0 -503 -3
-652 -12 -665 -11 -14 -13 114 -13 653 l0 670 -25 24 c-14 13 -65 42 -115 64
-49 22 -135 61 -190 87 -55 26 -142 64 -192 86 -81 34 -171 75 -421 190 -34
16 -65 29 -68 29 -3 0 -67 29 -142 64 -75 35 -165 76 -199 92 -35 15 -63 32
-63 36 0 25 85 -3 292 -98z m-183 -80 c73 -29 311 -136 409 -183 34 -17 65
-31 67 -31 3 0 101 -43 218 -96 117 -53 241 -109 277 -124 36 -15 107 -46 158
-70 l92 -43 0 -63 c0 -35 -1 -64 -3 -64 -10 0 -146 58 -302 130 -99 45 -205
93 -235 105 -30 13 -129 58 -220 100 -91 42 -187 86 -215 97 -56 22 -97 41
-232 104 l-93 43 0 60 c0 34 3 61 7 61 3 0 36 -12 72 -26z m14 -228 c45 -19
161 -71 257 -116 96 -45 191 -88 210 -95 19 -7 129 -56 243 -109 114 -53 210
-96 213 -96 3 0 29 -11 57 -24 29 -14 91 -43 140 -65 l87 -40 0 -410 c0 -226
-3 -411 -7 -411 -5 0 -62 24 -128 54 -66 30 -192 87 -280 127 -88 39 -182 83
-210 96 -27 13 -81 37 -120 52 -38 16 -146 66 -240 111 -93 45 -187 88 -208
96 -20 7 -53 21 -72 30 l-35 16 0 409 c0 225 3 409 6 409 3 0 42 -15 87 -34z
m-1 -915 c101 -49 275 -133 388 -186 113 -53 261 -124 330 -156 l125 -60 60
-97 c33 -53 70 -115 81 -138 12 -22 34 -60 50 -85 16 -24 54 -86 85 -138 l56
-95 -171 -84 c-94 -46 -225 -110 -291 -142 -66 -31 -181 -86 -255 -122 -74
-36 -174 -84 -222 -106 l-86 -40 -20 22 c-19 19 -153 224 -191 289 -9 16 -44
72 -78 125 -34 53 -59 100 -55 103 4 3 86 43 182 89 96 46 292 139 435 207
143 68 286 136 317 151 32 15 58 29 58 32 0 3 -39 24 -87 47 -49 23 -164 78
-258 123 -93 45 -204 97 -245 115 -41 18 -148 69 -237 114 -90 44 -165 81
-168 81 -3 0 -5 -69 -6 -152 -1 -84 -5 -164 -9 -178 -5 -15 -8 48 -9 153 -1
110 -5 177 -11 177 -5 0 -88 -38 -182 -84 -175 -85 -555 -267 -725 -347 -51
-24 -93 -46 -93 -49 0 -3 53 -30 118 -59 64 -30 182 -85 262 -124 80 -38 188
-89 240 -112 52 -23 162 -75 244 -114 147 -70 148 -71 134 -93 -8 -13 -36 -58
-63 -102 -26 -43 -77 -125 -114 -182 -36 -57 -77 -122 -91 -145 -14 -22 -35
-52 -47 -65 l-23 -25 -60 31 c-33 17 -81 39 -108 49 -26 11 -126 57 -222 104
-348 168 -621 297 -630 297 -33 0 4 74 166 330 44 69 94 150 111 180 30 52 37
58 120 94 48 22 159 75 245 118 86 42 201 97 255 122 54 24 181 85 283 135
123 61 192 89 207 86 12 -3 104 -45 205 -94z m-202 -1492 c0 -302 -4 -549 -8
-549 -20 0 -30 582 -15 943 12 326 23 147 23 -394z m-496 -75 c151 -67 196
-91 196 -105 0 -17 -6 -16 -62 10 -35 16 -83 37 -108 48 -224 99 -245 110
-248 127 -5 23 -25 30 222 -80z m-307 50 c18 -28 9 -56 -20 -62 -22 -4 -50 42
-42 68 9 28 41 25 62 -6z m346 -131 c92 -42 167 -80 167 -84 0 -24 -36 -13
-187 57 -92 42 -183 82 -203 89 -23 8 -36 19 -38 33 l-3 21 48 -20 c26 -12
123 -55 216 -96z m-87 -27 c88 -40 178 -81 202 -91 26 -12 42 -25 42 -36 0
-16 -7 -15 -67 11 -59 24 -156 69 -310 142 -38 17 -59 48 -34 48 5 0 80 -33
167 -74z m344 -37 c0 -12 -5 -16 -15 -13 -8 4 -15 15 -15 25 0 12 5 16 15 13
8 -4 15 -15 15 -25z m10 -104 c0 -44 -3 -53 -15 -49 -11 4 -15 21 -15 55 0 37
4 49 15 49 12 0 15 -13 15 -55z"/>
<path d="M2642 4018 c2 -12 11 -24 21 -26 14 -3 18 1 15 20 -2 12 -11 24 -21
26 -14 3 -18 -1 -15 -20z"/>
<path d="M2726 4003 c-12 -12 -6 -41 10 -47 20 -8 34 1 34 19 0 16 -34 38 -44
28z"/>
<path d="M2806 3954 c-6 -16 9 -44 24 -44 14 0 20 32 9 46 -15 18 -25 18 -33
-2z"/>
<path d="M2884 3916 c-8 -21 3 -36 27 -36 15 0 20 6 17 22 -4 27 -35 37 -44
14z"/>
<path d="M3556 3624 c-10 -25 21 -66 47 -62 25 3 35 41 17 64 -17 19 -56 18
-64 -2z"/>
<path d="M3730 3555 c-15 -18 0 -62 25 -71 37 -14 59 40 29 70 -20 20 -38 20
-54 1z"/>
<path d="M2670 3721 c0 -36 3 -40 38 -54 45 -18 52 -15 52 28 0 29 -5 35 -40
49 -22 9 -43 16 -45 16 -3 0 -5 -18 -5 -39z"/>
<path d="M2824 3665 c-4 -10 -3 -25 3 -33 7 -13 319 -166 395 -195 27 -10 51
19 37 45 -10 19 -150 90 -314 160 -96 41 -113 44 -121 23z"/>
<path d="M2670 3556 c0 -41 2 -44 41 -59 45 -18 53 -11 47 38 -2 20 -13 31
-45 45 l-43 19 0 -43z"/>
<path d="M2824 3505 c-14 -36 5 -60 68 -87 73 -30 355 -159 643 -293 241 -112
231 -108 250 -88 34 34 -3 56 -365 219 -58 25 -143 65 -190 86 -47 22 -141 65
-210 95 -208 92 -190 85 -196 68z"/>
<path d="M3343 3424 c-7 -20 9 -49 27 -49 7 0 18 8 24 18 9 15 7 21 -8 33 -25
18 -35 18 -43 -2z"/>
<path d="M2670 3387 c0 -39 3 -43 39 -58 22 -10 42 -14 45 -11 3 3 6 20 6 38
0 34 -9 43 -64 64 -25 9 -26 8 -26 -33z"/>
<path d="M2824 3336 c-12 -31 3 -52 56 -78 30 -15 125 -59 210 -98 141 -65
155 -70 167 -54 23 31 -7 61 -97 99 -25 10 -106 47 -181 82 -75 34 -140 63
-143 63 -4 0 -9 -6 -12 -14z"/>
<path d="M2670 3214 c0 -31 4 -37 35 -50 49 -20 55 -18 55 19 0 28 -5 36 -35
50 -50 24 -55 22 -55 -19z"/>
<path d="M2825 3169 c-18 -28 6 -60 68 -89 79 -37 340 -157 482 -222 61 -27
174 -79 252 -115 78 -36 147 -62 152 -58 19 11 12 54 -11 69 -13 8 -59 30
-103 49 -44 19 -174 78 -290 132 -465 215 -530 245 -537 245 -4 0 -10 -5 -13
-11z"/>
<path d="M1630 1405 c0 -8 5 -15 10 -15 6 0 10 7 10 15 0 8 -4 15 -10 15 -5 0
-10 -7 -10 -15z"/>
<path d="M1965 4094 c-112 -55 -437 -210 -600 -286 -263 -123 -344 -166 -362
-195 -16 -25 -18 -64 -21 -444 -3 -480 -4 -476 72 -509 53 -24 42 -28 276 87
96 47 267 130 380 185 422 205 428 209 449 285 15 52 15 809 0 851 -24 70 -88
78 -194 26z m160 -18 c14 -21 16 -74 13 -439 -3 -404 -4 -416 -24 -444 -24
-32 -108 -84 -234 -145 -47 -23 -235 -115 -418 -205 -183 -89 -339 -163 -347
-163 -33 0 -36 36 -33 485 l3 445 35 34 c22 21 109 69 235 129 110 52 308 147
440 211 262 126 301 137 330 92z"/>
<path d="M1905 3995 c-82 -41 -186 -91 -230 -111 -97 -45 -480 -229 -514 -246
-48 -26 -62 -58 -59 -135 l3 -70 240 114 c132 63 341 164 465 223 124 59 242
115 263 125 l37 17 0 73 c0 73 -7 87 -43 84 -7 0 -79 -34 -162 -74z m119 -30
c8 -22 -4 -45 -24 -45 -24 0 -33 26 -14 45 19 19 30 19 38 0z m-89 -45 c9 -14
-13 -50 -31 -50 -8 0 -17 7 -20 15 -11 29 35 61 51 35z m-489 -235 c6 -16 -12
-45 -28 -45 -15 0 -21 30 -8 45 16 19 29 19 36 0z m-89 -59 c-9 -23 -37 -20
-37 3 0 21 20 33 34 20 5 -4 6 -15 3 -23z m-79 -28 c-4 -29 -38 -38 -38 -10 0
22 8 32 27 32 9 0 13 -8 11 -22z m-80 -40 c-4 -29 -38 -38 -38 -10 0 22 8 32
27 32 9 0 13 -8 11 -22z"/>
<path d="M1845 3700 c-55 -27 -188 -90 -295 -141 -107 -50 -201 -96 -207 -102
-10 -7 -13 -78 -13 -292 l0 -282 -115 -54 c-113 -52 -116 -54 -113 -83 2 -19
9 -32 19 -34 9 -1 196 85 417 193 221 107 406 195 412 195 7 0 10 109 10 325
0 179 -3 325 -7 324 -5 0 -53 -22 -108 -49z m30 -105 c0 -23 -18 -33 -283
-156 -131 -62 -176 -79 -185 -70 -8 8 -8 17 -2 27 12 19 434 223 455 221 8 -1
15 -11 15 -22z m-65 -158 c0 -24 -30 -42 -204 -126 -168 -81 -206 -93 -206
-68 0 27 47 53 325 183 57 27 85 30 85 11z m68 -110 c3 -13 -45 -40 -224 -127
-126 -61 -234 -108 -242 -105 -33 12 -3 42 88 88 212 106 346 167 360 164 8
-1 16 -10 18 -20z m-3 -132 c0 -16 -30 -35 -139 -88 -135 -66 -166 -74 -166
-42 0 17 265 156 290 152 8 -1 15 -11 15 -22z"/>
<path d="M1228 3404 c-22 -12 -28 -22 -28 -49 0 -39 0 -39 35 -23 20 9 25 18
25 50 0 21 -1 38 -2 38 -2 -1 -15 -8 -30 -16z"/>
<path d="M1228 3264 c-21 -11 -28 -22 -28 -44 0 -33 15 -38 44 -17 12 9 17 23
14 44 -3 31 -3 31 -30 17z"/>
<path d="M1223 3128 c-17 -8 -23 -20 -23 -45 0 -35 9 -40 41 -23 13 8 19 21
19 45 0 38 -3 39 -37 23z"/>
<path d="M1228 2994 c-20 -11 -28 -22 -28 -43 0 -36 7 -42 36 -29 19 9 24 19
24 50 0 21 -1 38 -2 38 -2 -1 -15 -8 -30 -16z"/>
<path d="M2315 3530 c-17 -19 -17 -21 0 -40 22 -25 27 -25 56 -1 23 19 24 19
5 40 -24 26 -38 26 -61 1z"/>
<path d="M990 2401 l-24 -19 24 -21 c31 -25 33 -25 55 -1 17 19 17 21 0 40
-22 24 -24 24 -55 1z"/>
<path d="M4020 1914 c-58 -36 -62 -48 -27 -76 21 -17 21 -18 2 -19 -14 -1 -10
-4 10 -9 l30 -8 -35 -1 c-39 -1 -81 18 -45 20 11 1 0 5 -24 10 -25 5 -47 6
-50 4 -2 -3 8 -18 22 -33 20 -21 27 -38 27 -68 0 -35 4 -43 27 -53 l27 -12
-53 -31 c-29 -17 -49 -34 -44 -38 4 -4 50 -27 100 -50 l93 -43 97 37 c54 21
113 46 132 56 l35 17 -32 17 c-33 17 -41 31 -19 39 6 2 -4 12 -23 22 -31 16
-33 19 -15 25 15 5 24 25 36 78 l16 71 -76 17 c-42 9 -93 27 -113 40 -21 13
-39 24 -40 23 -2 0 -28 -16 -58 -35z m90 -9 c40 -21 38 -46 -5 -69 -32 -17
-35 -23 -35 -64 0 -38 2 -43 18 -37 36 15 52 17 52 6 0 -11 -39 -34 -80 -46
-20 -6 -23 -5 -12 6 6 7 12 38 12 69 0 51 -2 57 -30 73 -16 10 -30 22 -30 27
0 7 63 47 78 50 2 0 16 -7 32 -15z m149 -45 c24 -6 24 -6 -7 -19 -30 -13 -32
-17 -32 -63 0 -30 -4 -47 -10 -43 -5 3 -10 26 -10 50 0 35 -4 45 -20 50 -11 4
-20 15 -20 26 0 18 4 19 38 13 20 -4 48 -10 61 -14z m-12 -178 c14 -8 8 -14
-36 -36 -35 -18 -56 -24 -64 -18 -7 6 -46 20 -87 33 -44 14 -67 24 -55 26 12
2 32 0 45 -5 17 -6 35 -3 69 14 48 23 65 21 128 -14z m-180 -124 c-2 -18 -4
-6 -4 27 0 33 2 48 4 33 2 -15 2 -42 0 -60z"/>
<path d="M758 1838 l-138 -72 0 -137 c0 -138 5 -174 21 -164 5 3 22 -1 38 -10
17 -8 32 -15 36 -15 3 0 5 65 5 144 l0 144 -30 12 c-30 13 -40 30 -17 30 6 0
25 7 40 15 21 10 34 12 47 5 10 -6 25 -10 32 -10 7 1 0 8 -17 17 -43 24 -13
28 40 6 25 -10 45 -20 45 -23 0 -3 -27 -20 -60 -38 l-60 -33 0 -145 c0 -95 4
-144 11 -144 5 0 8 -4 4 -9 -3 -5 0 -13 6 -17 8 -4 9 -3 5 4 -9 15 0 15 27 0
43 -24 66 -19 167 38 56 30 108 53 116 50 8 -3 13 -2 10 3 -3 5 4 15 17 23 21
15 22 20 19 149 l-3 134 -107 55 c-59 30 -109 56 -112 57 -3 1 -67 -30 -142
-69z m177 25 c19 -9 35 -20 35 -25 0 -4 -19 -17 -42 -29 l-42 -21 -45 22 -46
22 45 24 c55 28 51 28 95 7z m155 -85 c0 -4 -4 -8 -9 -8 -5 0 -10 -55 -10
-122 -1 -67 -4 -124 -6 -127 -3 -2 -5 51 -5 118 0 113 -1 123 -17 116 -39 -16
-50 -15 -92 4 l-44 19 49 25 48 25 43 -21 c24 -12 43 -25 43 -29z m-120 -58
c0 -12 -105 -58 -132 -58 -15 0 -25 4 -23 8 6 9 -23 22 -34 16 -4 -3 -7 3 -8
13 -1 11 16 25 55 43 l57 26 42 -21 c24 -12 43 -24 43 -27z m-113 -267 c-2
-38 -3 -7 -3 67 0 74 1 105 3 68 2 -38 2 -98 0 -135z"/>
<path d="M3694 1665 c-10 -24 6 -35 52 -35 40 0 44 2 44 25 0 23 -4 25 -45 25
-31 0 -47 -5 -51 -15z"/>
<path d="M3658 1366 c-108 -55 -204 -107 -213 -115 -9 -9 -14 -23 -11 -35 3
-12 6 -51 7 -88 1 -37 6 -65 10 -62 11 7 59 -18 53 -27 -3 -5 1 -7 8 -4 7 3
39 -8 71 -24 l58 -28 162 80 c89 44 169 83 177 87 11 5 16 26 18 72 l3 65
-113 54 -112 55 46 26 45 25 43 -22 44 -22 -30 -17 c-29 -17 -19 -17 35 0 10
3 25 -1 34 -10 8 -9 24 -16 34 -16 10 0 25 -5 33 -10 13 -9 12 -12 -4 -25 -10
-8 -23 -16 -28 -17 -6 -2 -11 -34 -13 -70 -2 -51 1 -68 12 -72 8 -3 12 -2 9 3
-3 5 8 14 24 20 30 10 30 10 30 89 l0 79 -106 56 c-58 32 -111 56 -118 56 -6
-1 -99 -47 -208 -103z m207 -34 l100 -48 -105 -57 c-58 -31 -130 -67 -161 -81
l-55 -24 -97 45 c-53 26 -97 50 -97 54 0 14 273 158 300 159 8 0 60 -22 115
-48z"/>
<path d="M3636 1215 c-8 -9 -13 -22 -10 -30 8 -20 68 -19 85 1 11 14 10 18 -6
30 -25 18 -50 18 -69 -1z m52 -17 c-7 -19 -38 -22 -38 -4 0 10 9 16 21 16 12
0 19 -5 17 -12z"/>
<path d="M4145 1453 c-16 -16 -16 -18 5 -35 12 -10 32 -18 45 -18 13 0 33 8
45 18 21 17 21 19 5 35 -9 9 -32 17 -50 17 -18 0 -41 -8 -50 -17z"/>
<path d="M1103 1313 l-63 -35 0 -86 c0 -87 0 -87 31 -104 17 -10 34 -18 39
-18 4 0 43 -17 87 -37 43 -21 81 -37 85 -38 3 0 10 -3 13 -7 4 -4 15 -3 25 2
10 5 19 8 21 5 2 -2 2 31 1 73 l-4 77 -75 34 c-115 53 -116 55 -60 82 l47 23
85 -44 85 -44 -30 -19 c-18 -11 -30 -28 -30 -40 0 -12 -3 -45 -6 -73 -5 -42
-3 -52 10 -57 10 -4 15 -3 11 2 -3 5 11 15 30 21 l35 12 0 86 0 87 -135 68
c-74 37 -136 67 -138 66 -1 0 -30 -16 -64 -36z m111 -11 c8 -13 -81 -55 -101
-48 -14 6 -10 11 22 31 42 24 70 31 79 17z m-46 -107 c38 -19 82 -39 97 -45
15 -6 26 -13 23 -15 -6 -7 -112 37 -168 69 -66 38 -32 32 48 -9z"/>
<path d="M1663 1042 l-53 -26 0 -52 c0 -45 3 -54 28 -70 50 -33 62 -27 62 32
0 50 -1 53 -32 64 l-33 12 42 20 c36 19 45 20 72 8 39 -16 39 -25 2 -45 -26
-13 -29 -20 -33 -71 -3 -55 4 -72 34 -78 32 -7 68 -27 68 -37 0 -7 3 -9 7 -6
3 4 16 1 28 -7 26 -17 148 -17 165 0 15 15 -18 142 -40 149 -8 3 -69 34 -135
70 -66 36 -122 65 -125 64 -3 0 -29 -12 -57 -27z m222 -84 c35 -18 65 -36 65
-40 0 -3 -19 -9 -41 -13 -34 -6 -53 -2 -100 21 -33 15 -59 30 -59 33 0 7 40
28 57 30 7 0 42 -14 78 -31z m102 -103 c13 -42 10 -43 -22 -7 -29 33 -31 42
-7 42 13 0 22 -12 29 -35z"/>
<path d="M3036 968 c-74 -37 -77 -40 -74 -71 3 -30 10 -35 101 -81 l98 -48 65
32 c36 18 73 33 82 34 11 2 18 14 20 37 l3 34 -109 51 -109 51 -77 -39z m178
-36 l89 -43 -68 -38 -68 -38 -85 47 c-46 25 -84 50 -83 54 0 8 112 66 121 62
3 -1 45 -21 94 -44z"/>
<path d="M3081 936 c-25 -14 -25 -14 26 -40 29 -14 55 -31 59 -37 7 -11 -94
41 -123 64 -7 5 -13 6 -13 1 0 -5 32 -26 70 -46 l69 -38 48 31 c26 17 41 29
33 28 -8 -2 -38 9 -67 24 -59 31 -68 32 -102 13z"/>
<path d="M2165 990 c-3 -5 -1 -10 4 -10 6 0 11 5 11 10 0 6 -2 10 -4 10 -3 0
-8 -4 -11 -10z"/>
<path d="M2290 915 c0 -7 30 -13 34 -7 3 4 -4 9 -15 9 -10 1 -19 0 -19 -2z"/>
</g>
</svg>
